<svg width="25" height="26" viewBox="0 0 25 26" fill="none" xmlns="http://www.w3.org/2000/svg">
<mask id="mask0_1_1632" style="mask-type:luminance" maskUnits="userSpaceOnUse" x="0" y="0" width="25" height="26">
<path d="M25 0.789551H0V25.7896H25V0.789551Z" fill="white"/>
</mask>
<g mask="url(#mask0_1_1632)">
<path d="M18.9791 22.6646C18.8437 22.6646 18.7082 22.6542 18.5832 22.6333C10.6041 21.5292 4.26033 15.1854 3.15616 7.20622C3.04158 6.37288 3.29158 5.53955 3.84366 4.90413C4.38533 4.27913 5.177 3.91455 6.01033 3.91455H9.44783C10.3437 3.91455 11.0937 4.54997 11.2499 5.42497L11.6562 7.70622C11.8541 8.79997 11.3853 9.91455 10.4895 10.5604L10.1457 10.8C11.4062 12.7167 13.0624 14.3625 14.9999 15.6229L15.2187 15.3208C15.8541 14.4146 16.9791 13.9563 18.0728 14.1438L20.3541 14.55C21.2291 14.7063 21.8645 15.4667 21.8645 16.3521V19.7896C21.8645 20.6229 21.4999 21.4146 20.8749 21.9667C20.3541 22.4146 19.677 22.6646 18.9791 22.6646ZM6.01033 5.47705C5.62491 5.47705 5.27075 5.6333 5.01033 5.93538C4.76033 6.22705 4.64575 6.61247 4.69783 6.99788C5.70825 14.2792 11.5103 20.0812 18.7916 21.0917C19.177 21.1437 19.5624 21.0292 19.8541 20.7792C20.1457 20.5187 20.3124 20.1749 20.3124 19.7792V16.3417C20.3124 16.2063 20.2187 16.1021 20.0937 16.0813L17.8124 15.675C17.302 15.5917 16.802 15.8 16.5103 16.2167L15.8645 17.1229C15.6249 17.4563 15.177 17.5499 14.8228 17.3417C12.1874 15.7895 9.96866 13.5917 8.427 10.9875C8.21866 10.6333 8.31241 10.1854 8.64575 9.95622L9.57283 9.29997C9.9895 9.0083 10.1978 8.49788 10.1145 7.99788L9.70825 5.6958C9.68741 5.5708 9.57283 5.47705 9.44783 5.47705H6.01033Z" fill="#D11717"/>
</g>
</svg>
