<svg width="27" height="29" viewBox="0 0 27 29" fill="none" xmlns="http://www.w3.org/2000/svg">
<path d="M18.8123 16.7058C18.5249 16.5586 17.0931 15.8593 16.8269 15.7646C16.5606 15.6647 16.3654 15.6174 16.173 15.9118C15.9778 16.2037 15.4241 16.8531 15.2501 17.0502C15.0814 17.2448 14.91 17.2685 14.6226 17.1239C12.9139 16.2721 11.7933 15.6042 10.6675 13.677C10.3695 13.1643 10.9654 13.2011 11.5218 12.0942C11.6167 11.8996 11.5692 11.734 11.4954 11.5868C11.4216 11.4396 10.8415 10.0145 10.5989 9.43346C10.3643 8.86817 10.1217 8.94706 9.94503 8.93654C9.77628 8.92602 9.58379 8.92603 9.38868 8.92603C9.19356 8.92603 8.87979 8.99963 8.61348 9.28622C8.34717 9.57806 7.5957 10.2801 7.5957 11.705C7.5957 13.1301 8.63721 14.5104 8.77959 14.705C8.92725 14.8996 10.8284 17.8233 13.7472 19.0826C15.5929 19.8766 16.3153 19.945 17.2382 19.8084C17.7998 19.7241 18.9573 19.1089 19.1973 18.428C19.4373 17.7496 19.4373 17.1686 19.366 17.0477C19.2948 16.9189 19.0998 16.8452 18.8123 16.7058Z" fill="#989898"/>
<path d="M24.395 9.83051C23.7992 8.41862 22.9449 7.15135 21.856 6.06285C20.767 4.97699 19.4961 4.12251 18.0775 3.53093C16.6272 2.92358 15.0875 2.61597 13.5001 2.61597H13.4474C11.8495 2.62385 10.3018 2.93936 8.84634 3.55985C7.44097 4.15932 6.18061 5.01117 5.1022 6.09703C4.02378 7.1829 3.17739 8.44492 2.59204 9.85154C1.9856 11.3081 1.67973 12.8568 1.68765 14.4501C1.69556 16.2747 2.13326 18.0862 2.95327 19.7058V23.7022C2.95327 24.37 3.49643 24.9116 4.16616 24.9116H8.17661C9.80084 25.7293 11.6176 26.1658 13.4474 26.1737H13.5028C15.0822 26.1737 16.6141 25.8687 18.0564 25.2718C19.467 24.6856 20.7354 23.8442 21.8216 22.7689C22.9106 21.6934 23.7676 20.4368 24.3661 19.0354C24.9883 17.584 25.3047 16.0407 25.3126 14.4474C25.3206 12.8462 25.0095 11.2923 24.395 9.83051ZM20.411 21.3465C18.5626 23.1711 16.1105 24.1754 13.5001 24.1754H13.4553C11.8654 24.1676 10.286 23.7732 8.89116 23.0317L8.66968 22.9135H4.95718V19.2116L4.83853 18.9907C4.09497 17.5998 3.69946 16.025 3.69156 14.4395C3.68101 11.8182 4.6856 9.35726 6.52866 7.50366C8.36909 5.65007 10.8292 4.62468 13.458 4.61417H13.5028C14.8212 4.61417 16.1 4.86919 17.3049 5.37401C18.481 5.86567 19.5356 6.57293 20.4427 7.47737C21.3471 8.37919 22.0589 9.4335 22.552 10.6061C23.0635 11.8209 23.3193 13.1092 23.3141 14.4395C23.2982 17.0582 22.2672 19.5113 20.411 21.3465Z" fill="#989898"/>
</svg>
