<svg width="38" height="39" viewBox="0 0 38 39" fill="none" xmlns="http://www.w3.org/2000/svg">
<rect y="0.394775" width="38" height="38" rx="19" fill="#F8F8F8"/>
<mask id="mask0_1_1604" style="mask-type:luminance" maskUnits="userSpaceOnUse" x="5" y="5" width="29" height="28">
<path d="M33.0717 5.25586H5.27783V32.7003H33.0717V5.25586Z" fill="white"/>
</mask>
<g mask="url(#mask0_1_1604)">
<path d="M26.3788 29.2697C26.2283 29.2697 26.0777 29.2583 25.9387 29.2354C17.0679 28.0233 10.0152 21.0592 8.78763 12.3C8.66024 11.3851 8.93818 10.4703 9.55196 9.77276C10.1542 9.08663 11.0343 8.6864 11.9607 8.6864H15.7824C16.7784 8.6864 17.6122 9.38395 17.7859 10.3445L18.2376 12.8488C18.4576 14.0495 17.9364 15.2731 16.9405 15.982L16.5583 16.245C17.9596 18.3492 19.8009 20.1559 21.955 21.5395L22.1982 21.2079C22.9046 20.2131 24.1553 19.71 25.3713 19.9158L27.9075 20.3617C28.8803 20.5333 29.5867 21.368 29.5867 22.34V26.1136C29.5867 27.0284 29.1814 27.8975 28.4865 28.5036C27.9075 28.9953 27.1547 29.2697 26.3788 29.2697ZM11.9607 10.4017C11.5323 10.4017 11.1385 10.5733 10.849 10.9048C10.5711 11.225 10.4437 11.6481 10.5016 12.0712C11.6249 20.0644 18.0754 26.4338 26.1704 27.543C26.5989 27.6002 27.0273 27.4744 27.3516 27.2C27.6758 26.9141 27.8611 26.5367 27.8611 26.1022V22.3286C27.8611 22.18 27.757 22.0656 27.618 22.0427L25.0818 21.5967C24.5143 21.5053 23.9584 21.7339 23.6341 22.1914L22.9162 23.1862C22.6498 23.5522 22.1518 23.655 21.7581 23.4264C18.8281 21.7225 16.3615 19.3097 14.6475 16.4509C14.4159 16.062 14.5201 15.5703 14.8906 15.3188L15.9214 14.5984C16.3846 14.2783 16.6162 13.7178 16.5236 13.169L16.0719 10.6418C16.0488 10.5045 15.9214 10.4017 15.7824 10.4017H11.9607Z" fill="#595959"/>
</g>
</svg>
