<svg width="439" height="501" viewBox="0 0 439 501" fill="none" xmlns="http://www.w3.org/2000/svg">
<path d="M697.299 187.351C697.169 180.824 695.292 174.477 691.894 169.076C688.497 163.675 683.721 159.45 678.147 156.912L584.491 114.161L679.182 66.541C684.683 63.7794 689.324 59.355 692.539 53.8033C695.755 48.2517 697.409 41.8121 697.3 35.2661C697.19 28.7202 695.323 22.3488 691.923 16.926C688.523 11.5032 683.737 7.26245 678.147 4.71692L360.945 -140.071C357.078 -141.839 352.921 -142.75 348.721 -142.75C344.521 -142.75 340.364 -141.839 336.497 -140.071L19.2948 4.71692C13.7047 7.26245 8.91919 11.5032 5.51955 16.926C2.1199 22.3488 0.25232 28.7202 0.142804 35.2661C0.0332887 41.8121 1.68655 48.2517 4.90258 53.8033C8.11861 59.355 12.7589 63.7794 18.2602 66.541L112.95 114.161L19.2948 156.912C13.7047 159.458 8.91919 163.698 5.51955 169.121C2.1199 174.544 0.25232 180.915 0.142804 187.461C0.0332887 194.007 1.68655 200.447 4.90258 205.999C8.11861 211.55 12.7589 215.974 18.2602 218.736L112.95 266.357L19.2948 309.107C13.7047 311.653 8.91919 315.893 5.51955 321.316C2.1199 326.739 0.25232 333.111 0.142804 339.657C0.0332887 346.202 1.68655 352.642 4.90258 358.193C8.11861 363.745 12.7589 368.17 18.2602 370.932L112.95 418.552L19.2948 461.302C13.7047 463.848 8.91919 468.089 5.51955 473.512C2.1199 478.935 0.25232 485.305 0.142804 491.851C0.0332887 498.397 1.68655 504.837 4.90258 510.389C8.11861 515.94 12.7589 520.365 18.2602 523.126L335.494 682.694C339.633 684.79 344.149 685.875 348.721 685.875C353.293 685.875 357.809 684.79 361.949 682.694L679.182 523.126C684.683 520.365 689.324 515.94 692.539 510.389C695.755 504.837 697.409 498.397 697.3 491.851C697.19 485.305 695.323 478.935 691.923 473.512C688.523 468.089 683.737 463.848 678.147 461.302L584.491 418.552L679.182 370.932C684.683 368.17 689.324 363.745 692.539 358.193C695.755 352.642 697.409 346.202 697.3 339.657C697.19 333.111 695.323 326.739 691.923 321.316C688.523 315.893 683.737 311.653 678.147 309.107L584.491 266.357L679.182 218.736C684.699 215.967 689.35 211.526 692.567 205.952C695.784 200.379 697.429 193.915 697.299 187.351ZM348.721 -72.3281L588.786 37.2189L348.721 157.994L108.657 37.2189L348.721 -72.3281ZM588.786 493.804L348.721 614.579L108.657 493.804L189.493 456.939L335.494 530.365C339.633 532.459 344.149 533.545 348.721 533.545C353.293 533.545 357.809 532.459 361.949 530.365L507.95 456.939L588.786 493.804ZM588.786 341.609L348.721 462.384L108.657 341.609L189.493 304.743L335.494 378.169C339.633 380.263 344.149 381.349 348.721 381.349C353.293 381.349 357.809 380.263 361.949 378.169L507.95 304.743L588.786 341.609ZM348.721 310.188L108.657 189.414L189.493 152.548L335.494 225.975C339.633 228.069 344.149 229.155 348.721 229.155C353.293 229.155 357.809 228.069 361.949 225.975L507.95 152.548L588.786 189.414L348.721 310.188Z" fill="#989898" fill-opacity="0.1"/>
</svg>
