<svg width="89" height="28" viewBox="0 0 89 28" fill="none" xmlns="http://www.w3.org/2000/svg">
<rect x="0.917969" y="0.450195" width="88.0823" height="27" rx="4" fill="#595959"/>
<g clip-path="url(#clip0_1_1021)">
<g clip-path="url(#clip1_1_1021)">
<g clip-path="url(#clip2_1_1021)">
<path d="M16.4492 9.59082V15.9765" stroke="#989898" stroke-width="1.27714" stroke-linecap="round"/>
<path d="M20.9186 19.1689H11.9785" stroke="#989898" stroke-width="1.27714" stroke-linecap="round"/>
<path d="M13.2559 12.1452L15.9972 9.40383C16.2465 9.15445 16.6509 9.15445 16.9002 9.40383L19.6416 12.1452" stroke="#989898" stroke-width="1.27714" stroke-linecap="round"/>
</g>
</g>
</g>
<path d="M31.1821 13.6402V13.0292H32.6511C32.9545 13.0292 33.2275 12.9772 33.4701 12.8732C33.7128 12.7692 33.9035 12.6175 34.0421 12.4182C34.1808 12.2189 34.2501 11.9762 34.2501 11.6902C34.2501 11.2569 34.0985 10.9232 33.7951 10.6892C33.4918 10.4465 33.1105 10.3252 32.6511 10.3252H31.4161V17.4752H32.7811C33.1711 17.4752 33.5135 17.4059 33.8081 17.2672C34.1115 17.1285 34.3455 16.9292 34.5101 16.6692C34.6835 16.4092 34.7701 16.0929 34.7701 15.7202C34.7701 15.4429 34.7225 15.1959 34.6271 14.9792C34.5318 14.7625 34.3931 14.5805 34.2111 14.4332C34.0378 14.2859 33.8298 14.1775 33.5871 14.1082C33.3445 14.0302 33.0758 13.9912 32.7811 13.9912H31.1821V13.3802H32.7811C33.2231 13.3802 33.6305 13.4279 34.0031 13.5232C34.3758 13.6185 34.7008 13.7659 34.9781 13.9652C35.2641 14.1559 35.4851 14.4029 35.6411 14.7062C35.7971 15.0095 35.8751 15.3692 35.8751 15.7852C35.8751 16.3832 35.7365 16.8815 35.4591 17.2802C35.1905 17.6702 34.8221 17.9649 34.3541 18.1642C33.8948 18.3549 33.3705 18.4502 32.7811 18.4502H30.3111V9.35019H32.6511C33.1971 9.35019 33.6695 9.43253 34.0681 9.59719C34.4755 9.76186 34.7918 10.0132 35.0171 10.3512C35.2425 10.6805 35.3551 11.1052 35.3551 11.6252C35.3551 12.0499 35.2425 12.4139 35.0171 12.7172C34.7918 13.0205 34.4755 13.2502 34.0681 13.4062C33.6695 13.5622 33.1971 13.6402 32.6511 13.6402H31.1821ZM43.3901 12.4702H44.4301V18.4502H43.3901V12.4702ZM37.9951 12.4702H39.0351V18.4502H37.9951V12.4702ZM38.6061 15.6422V14.7322H40.4651C41.0805 14.7322 41.5961 14.8839 42.0121 15.1872C42.4368 15.4819 42.6491 15.9499 42.6491 16.5912C42.6491 17.0159 42.5538 17.3669 42.3631 17.6442C42.1725 17.9215 41.9125 18.1252 41.5831 18.2552C41.2538 18.3852 40.8811 18.4502 40.4651 18.4502H38.6061V17.5402H40.4651C40.7165 17.5402 40.9245 17.5055 41.0891 17.4362C41.2625 17.3582 41.3925 17.2499 41.4791 17.1112C41.5658 16.9639 41.6091 16.7905 41.6091 16.5912C41.6091 16.2879 41.5138 16.0539 41.3231 15.8892C41.1325 15.7245 40.8465 15.6422 40.4651 15.6422H38.6061ZM49.4481 13.3152V12.3402C50.0374 12.3402 50.5617 12.4745 51.0211 12.7432C51.4891 13.0119 51.8574 13.3802 52.1261 13.8482C52.4034 14.3162 52.5421 14.8535 52.5421 15.4602C52.5421 16.0582 52.4034 16.5955 52.1261 17.0722C51.8574 17.5402 51.4891 17.9085 51.0211 18.1772C50.5617 18.4459 50.0374 18.5802 49.4481 18.5802C48.8674 18.5802 48.3431 18.4372 47.8751 18.1512C47.4071 17.8565 47.0344 17.4189 46.7571 16.8382C46.4884 16.2575 46.3541 15.5382 46.3541 14.6802L47.3941 15.4602C47.3941 15.8762 47.4851 16.2445 47.6671 16.5652C47.8491 16.8859 48.0917 17.1415 48.3951 17.3322C48.7071 17.5142 49.0581 17.6052 49.4481 17.6052C49.8381 17.6052 50.1847 17.5142 50.4881 17.3322C50.8001 17.1415 51.0427 16.8859 51.2161 16.5652C51.3981 16.2445 51.4891 15.8762 51.4891 15.4602C51.4891 15.0442 51.3981 14.6759 51.2161 14.3552C51.0427 14.0259 50.8001 13.7702 50.4881 13.5882C50.1847 13.4062 49.8381 13.3152 49.4481 13.3152ZM46.9261 15.4602C46.9261 14.9749 46.9867 14.5415 47.1081 14.1602C47.2294 13.7702 47.4027 13.4409 47.6281 13.1722C47.8534 12.9035 48.1177 12.6999 48.4211 12.5612C48.7331 12.4139 49.0754 12.3402 49.4481 12.3402V13.3152C49.2227 13.3152 48.9887 13.3629 48.7461 13.4582C48.5034 13.5535 48.2781 13.6922 48.0701 13.8742C47.8707 14.0562 47.7061 14.2815 47.5761 14.5502C47.4547 14.8102 47.3941 15.1135 47.3941 15.4602H46.9261ZM46.3541 14.6802C46.3541 13.8655 46.4321 13.1462 46.5881 12.5222C46.7441 11.8982 47.0171 11.3695 47.4071 10.9362C47.8057 10.4942 48.3517 10.1562 49.0451 9.9222C49.6344 9.72286 50.0721 9.48453 50.3581 9.20719C50.6527 8.9212 50.8304 8.6222 50.8911 8.31019H51.9181C51.8747 8.69153 51.7361 9.04253 51.5021 9.36319C51.2681 9.67519 50.9604 9.94819 50.5791 10.1822C50.2064 10.4162 49.7817 10.6112 49.3051 10.7672C48.7677 10.9405 48.3474 11.2005 48.0441 11.5472C47.7494 11.8939 47.5457 12.2882 47.4331 12.7302C47.3204 13.1635 47.2641 13.5969 47.2641 14.0302V15.3692L46.3541 14.6802ZM55.4457 21.3102H54.4057V12.4702H55.4457V21.3102ZM60.4507 15.4602C60.4507 16.1015 60.3164 16.6562 60.0477 17.1242C59.7791 17.5922 59.4194 17.9519 58.9687 18.2032C58.5267 18.4545 58.0327 18.5802 57.4867 18.5802C56.9927 18.5802 56.5551 18.4545 56.1737 18.2032C55.8011 17.9519 55.5064 17.5922 55.2897 17.1242C55.0817 16.6562 54.9777 16.1015 54.9777 15.4602C54.9777 14.8102 55.0817 14.2555 55.2897 13.7962C55.5064 13.3282 55.8011 12.9685 56.1737 12.7172C56.5551 12.4659 56.9927 12.3402 57.4867 12.3402C58.0327 12.3402 58.5267 12.4659 58.9687 12.7172C59.4194 12.9685 59.7791 13.3282 60.0477 13.7962C60.3164 14.2555 60.4507 14.8102 60.4507 15.4602ZM59.3977 15.4602C59.3977 15.0009 59.3024 14.6109 59.1117 14.2902C58.9297 13.9695 58.6827 13.7269 58.3707 13.5622C58.0674 13.3975 57.7294 13.3152 57.3567 13.3152C57.0534 13.3152 56.7544 13.3975 56.4597 13.5622C56.1651 13.7269 55.9224 13.9695 55.7317 14.2902C55.5411 14.6109 55.4457 15.0009 55.4457 15.4602C55.4457 15.9195 55.5411 16.3095 55.7317 16.6302C55.9224 16.9509 56.1651 17.1935 56.4597 17.3582C56.7544 17.5229 57.0534 17.6052 57.3567 17.6052C57.7294 17.6052 58.0674 17.5229 58.3707 17.3582C58.6827 17.1935 58.9297 16.9509 59.1117 16.6302C59.3024 16.3095 59.3977 15.9195 59.3977 15.4602ZM62.8528 16.6952C62.8528 16.9032 62.9091 17.0809 63.0218 17.2282C63.1345 17.3669 63.2861 17.4752 63.4768 17.5532C63.6675 17.6225 63.8798 17.6572 64.1138 17.6572C64.4605 17.6572 64.7681 17.6052 65.0368 17.5012C65.3055 17.3972 65.5135 17.2325 65.6608 17.0072C65.8168 16.7819 65.8948 16.4829 65.8948 16.1102L66.1028 16.7602C66.1028 17.1415 65.9988 17.4709 65.7908 17.7482C65.5915 18.0169 65.3228 18.2249 64.9848 18.3722C64.6468 18.5109 64.2698 18.5802 63.8538 18.5802C63.4811 18.5802 63.1388 18.5109 62.8268 18.3722C62.5148 18.2335 62.2635 18.0299 62.0728 17.7612C61.8908 17.4839 61.7998 17.1415 61.7998 16.7342C61.7998 16.3095 61.9038 15.9499 62.1118 15.6552C62.3198 15.3605 62.6145 15.1352 62.9958 14.9792C63.3771 14.8145 63.8278 14.7322 64.3478 14.7322C64.7291 14.7322 65.0541 14.7842 65.3228 14.8882C65.6001 14.9835 65.8211 15.0962 65.9858 15.2262C66.1505 15.3475 66.2631 15.4472 66.3238 15.5252V16.1362C66.0291 15.9282 65.7301 15.7765 65.4268 15.6812C65.1235 15.5772 64.7811 15.5252 64.3998 15.5252C64.0531 15.5252 63.7628 15.5729 63.5288 15.6682C63.3035 15.7635 63.1345 15.8979 63.0218 16.0712C62.9091 16.2445 62.8528 16.4525 62.8528 16.6952ZM62.8528 13.8742L62.3458 13.0812C62.5711 12.9165 62.8745 12.7519 63.2558 12.5872C63.6371 12.4225 64.0965 12.3402 64.6338 12.3402C65.0931 12.3402 65.4918 12.4139 65.8298 12.5612C66.1765 12.6999 66.4451 12.9035 66.6358 13.1722C66.8351 13.4409 66.9348 13.7702 66.9348 14.1602V18.4502H65.8948V14.1602C65.8948 13.8569 65.7648 13.6315 65.5048 13.4842C65.2535 13.3282 64.9631 13.2502 64.6338 13.2502C64.3478 13.2502 64.0878 13.2892 63.8538 13.3672C63.6198 13.4365 63.4161 13.5232 63.2428 13.6272C63.0781 13.7225 62.9481 13.8049 62.8528 13.8742ZM68.2844 12.4702H71.7944V13.4452H68.2844V12.4702ZM69.5194 12.7302H70.5594V18.4502H69.5194V12.7302ZM73.3379 12.4702H74.3779V18.4502H73.3379V12.4702ZM73.9489 15.6422V14.7322H75.8079C76.4233 14.7322 76.9389 14.8839 77.3549 15.1872C77.7796 15.4819 77.9919 15.9499 77.9919 16.5912C77.9919 17.0159 77.8966 17.3669 77.7059 17.6442C77.5153 17.9215 77.2553 18.1252 76.9259 18.2552C76.5966 18.3852 76.2239 18.4502 75.8079 18.4502H73.9489V17.5402H75.8079C76.0593 17.5402 76.2673 17.5055 76.4319 17.4362C76.6053 17.3582 76.7353 17.2499 76.8219 17.1112C76.9086 16.9639 76.9519 16.7905 76.9519 16.5912C76.9519 16.2879 76.8566 16.0539 76.6659 15.8892C76.4753 15.7245 76.1893 15.6422 75.8079 15.6422H73.9489Z" fill="white"/>
<defs>
<clipPath id="clip0_1_1021">
<rect width="11" height="12" fill="white" transform="translate(10.918 7.9502)"/>
</clipPath>
<clipPath id="clip1_1_1021">
<rect width="11" height="12" fill="white" transform="translate(10.918 7.9502)"/>
</clipPath>
<clipPath id="clip2_1_1021">
<rect width="11" height="12" fill="white" transform="translate(10.918 7.9502)"/>
</clipPath>
</defs>
</svg>
