<svg width="260" height="117" viewBox="0 0 260 117" fill="none" xmlns="http://www.w3.org/2000/svg">
<g clip-path="url(#clip0_1_1042)">
<path d="M100.694 0.84668H102.499C102.541 2.33124 102.252 4.53979 102.492 5.87108C102.959 6.0941 103.531 6.22537 103.726 6.74622C104.161 7.90528 104.158 10.2548 103.617 11.3804C103.415 11.8016 103.078 11.9736 102.647 12.107C102.616 12.1167 102.585 12.1249 102.553 12.1339C102.774 13.1572 102.637 14.3679 102.623 15.4143L102.535 22.1569C102.521 23.3231 102.415 24.6272 102.562 25.7832C103.463 26.0232 104.275 26.395 105.09 26.8444C104.281 27.4863 103.407 28.0119 102.526 28.5485L102.528 40.1063C102.527 41.8892 102.672 43.8035 102.512 45.5658C102.492 45.9064 102.528 46.4595 102.34 46.7403L102.39 46.5227L102.271 46.5638C102.358 44.9699 102.4 29.465 102.122 29.0848C101.669 29.0929 101.23 29.1173 100.78 29.1765L100.744 41.6482C100.73 43.1751 100.919 44.7256 100.718 46.2436L100.643 46.3161L100.539 45.7499L100.39 46.3997C100.389 40.4757 100.432 34.552 100.517 28.6286C100.021 28.1686 99.3157 27.8181 98.917 27.2677C98.7236 27.0007 98.7122 26.8747 98.7694 26.5599C99.1567 26.1028 99.7988 25.9492 100.358 25.8036C100.455 24.3445 100.392 22.8455 100.395 21.382C100.373 18.3489 100.404 15.3164 100.488 12.2844C100.092 12.1136 99.6712 11.9828 99.2657 11.8369C99.0947 10.2682 98.8445 8.35016 99.3497 6.82269L99.3768 6.7427C99.5308 6.27661 99.9231 6.0024 100.289 5.70032C100.645 4.32562 100.565 2.30842 100.694 0.84668Z" fill="white"/>
<path d="M199.592 71.1758C200.22 71.2436 200.873 71.2801 201.481 71.4595C202.211 72.9517 201.168 74.8692 201.741 76.3126C201.147 76.5149 200.046 76.3448 199.457 76.1472C199.703 75.7353 199.838 71.9019 199.678 71.3739C199.656 71.3043 199.625 71.2398 199.592 71.1758Z" fill="white"/>
<path d="M208.01 71.1953C208.607 71.2742 209.263 71.309 209.834 71.5032C210.479 72.662 210.062 74.9337 210.114 76.246L209.976 76.3482C209.302 76.4776 208.576 76.3317 207.928 76.1413C208.19 75.5933 208.246 71.7989 208.039 71.2568C208.031 71.2356 208.019 71.2161 208.01 71.1953Z" fill="white"/>
<path d="M203.387 76.2414C204.113 75.3863 203.508 72.5755 203.958 71.3637C204.102 71.3179 204.248 71.2772 204.4 71.2755C204.748 71.2717 205.086 71.3637 205.325 71.6339C206.084 72.4911 205.608 75.0707 205.527 76.1485C204.996 76.4696 203.988 76.3686 203.387 76.2414Z" fill="white"/>
<path d="M211.881 76.1612C212.477 75.2794 211.853 71.4655 212.682 71.3064C213.007 71.2441 213.309 71.2564 213.588 71.4646C213.999 71.7717 214.091 72.3502 214.128 72.8274C214.197 73.7431 214.162 75.2395 213.929 76.1298L213.805 76.2367C213.145 76.3851 212.523 76.3762 211.881 76.1612Z" fill="white"/>
<path d="M177.827 75.1359C177.838 75.1083 177.85 75.0808 177.86 75.0532C178.169 74.2431 177.682 71.5527 178.585 71.2249C178.775 71.1562 178.919 71.1918 179.09 71.294C179.543 71.5633 179.778 72.295 179.845 72.7828C179.968 73.6815 180.106 75.4167 179.804 76.2586C179.778 76.2841 179.753 76.3104 179.726 76.3345C179.523 76.5156 179.144 76.5589 178.884 76.5305C178.505 76.4898 178.305 76.2378 178.088 75.9604C178.043 75.6797 177.986 75.4625 177.862 75.2059C177.851 75.1826 177.839 75.1592 177.827 75.1359Z" fill="white"/>
<path d="M100.78 29.1767C101.23 29.1175 101.669 29.0931 102.122 29.085C102.4 29.4651 102.358 44.97 102.271 46.564L102.391 46.5228L102.34 46.7404C102.528 46.4596 102.492 45.9065 102.512 45.566C102.565 46.2331 102.604 46.905 102.687 47.5692C103.51 47.6201 104.339 47.6498 105.158 47.7265C105.404 49.3871 105.293 51.0599 105.205 52.7285C104.189 53.1043 103.369 53.497 102.537 54.1973C102.573 58.0646 102.401 62.0418 102.871 65.882C104.535 67.8462 103.979 70.5917 104.318 72.972C104.946 73.2362 105.555 73.425 106.216 73.5857C106.264 74.7207 106.172 76.7694 107.035 77.5901C107.124 77.6749 107.218 77.7343 107.328 77.7865C107.468 77.7551 107.593 77.7597 107.682 77.6333C107.899 77.3229 107.954 76.8139 107.97 76.4474C108.049 74.6313 107.835 72.723 107.771 70.9013C107.688 68.5533 107.722 66.1921 107.719 63.8419C107.717 62.6488 107.482 60.6595 108.007 59.5716C108.129 59.3188 108.519 59.2208 108.763 59.1602C109.826 58.8959 111.018 58.9125 112.11 58.8595C112.466 60.8517 112.472 62.891 112.517 64.909C112.532 65.6148 112.444 66.4508 112.562 67.1366C112.608 67.4068 112.688 67.5069 112.884 67.6834C113.389 67.7656 114.009 67.8721 114.446 67.5213C114.811 67.227 114.92 66.7659 114.96 66.3176C115.065 65.1461 114.851 63.9085 114.871 62.7226C114.922 59.6034 115.05 56.4855 115.085 53.3664C115.11 51.0938 115.002 48.747 115.203 46.4838C115.296 45.44 115.899 44.4933 116.067 43.4626C116.282 42.1481 116.619 34.4047 116.167 33.5494C119.572 33.3551 122.98 33.2547 126.391 33.2481C126.559 33.546 126.6 33.8142 126.617 34.1502C126.794 37.7082 126.628 41.3461 126.629 44.9145C126.63 51.3521 126.668 57.7896 126.743 64.227C126.752 65.3595 127.038 72.5822 126.876 73.1378C126.857 73.2044 126.825 73.2659 126.79 73.3253C127.531 73.3457 128.29 73.3961 129.03 73.3495C129.709 72.4121 129.303 70.5599 129.464 69.4304C129.613 68.3815 130.213 67.4522 130.391 66.4173C130.872 63.6366 130.672 60.6231 130.779 57.7974C130.813 56.9135 131.031 55.8625 130.958 55.0057C132.738 54.3822 134.973 54.1973 135.875 52.2797C136.126 51.7453 136.241 51.1617 136.303 50.5776C136.425 49.4206 136.668 41.3168 136.457 40.7077C137.238 40.5327 138.38 40.4065 139.068 40.0171C139.08 39.996 139.093 39.9754 139.104 39.9538C139.854 38.5049 138.476 30.6027 139.955 30.0974C140.314 29.9748 140.736 30.0129 141.103 30.0687C141.5 30.4815 141.297 37.3615 141.274 38.5806C141.266 39.0237 141.309 39.5417 141.129 39.955C141.918 40.0523 142.694 40.1722 143.475 40.3236C143.681 40.7549 144.079 51.0896 143.902 51.5795C143.871 51.6664 143.833 51.7474 143.787 51.8272C144.705 51.9247 145.707 51.9578 146.502 52.4778C146.516 52.4943 146.531 52.5105 146.545 52.5274C147.389 53.539 147.053 54.2596 148.683 54.4365C150.279 54.61 151.94 54.4463 153.545 54.4916C153.775 54.8148 153.814 55.1024 153.837 55.4909C154.081 59.6157 153.767 63.819 153.911 67.9599C153.929 68.4909 154.123 69.4614 154.006 69.9517C153.996 69.9975 153.963 70.0603 153.946 70.0997C154.374 70.3033 154.812 70.5137 155.186 70.808C155.758 71.2585 156.527 72.4109 157.294 72.4113C157.351 72.3536 157.476 72.2577 157.511 72.1907C157.925 71.4018 157.854 60.9959 157.854 59.3799C157.855 58.1974 157.634 55.5626 158.106 54.5218C158.206 54.3012 158.696 54.2036 158.913 54.2049C159.181 54.2066 159.382 54.3237 159.551 54.5239C159.812 54.8339 159.861 55.3459 159.881 55.7348C159.95 57.0921 159.803 58.4985 159.79 59.8621C159.766 62.3561 159.814 64.8581 159.818 67.3529C159.822 69.2893 159.837 71.2257 159.865 73.162C159.875 73.917 159.981 74.7555 159.923 75.4991C159.915 75.5996 159.887 75.6725 159.852 75.7658C161.511 76.3482 163.783 76.9293 165.211 77.9731C165.221 77.9493 165.233 77.926 165.243 77.9014C165.472 77.2983 165.026 76.4792 164.94 75.8617C164.814 74.9561 164.616 71.8697 165.56 71.3687C165.677 71.3064 165.879 71.3178 166.004 71.3581C166.313 71.4578 166.584 71.7233 166.783 71.9689C167.174 73.0093 166.329 75.9715 167.378 76.4415C167.838 76.6476 168.684 76.528 169.178 76.433C169.191 76.3999 169.204 76.3673 169.216 76.3342C169.69 75.0325 168.815 72.1492 169.999 71.398C170.411 71.3895 170.742 71.3793 171.123 71.5528C171.549 72.167 171.66 75.3277 171.505 76.1145C171.486 76.2048 171.456 76.2566 171.41 76.3355C172.12 76.3753 172.837 76.4385 173.548 76.4194C173.963 75.7493 173.798 72.315 173.617 71.5316C173.606 71.4883 173.595 71.4451 173.583 71.4018C174.257 71.4464 174.879 71.4879 175.526 71.7038C175.769 72.2264 175.823 75.8261 175.646 76.3041C175.638 76.3236 175.627 76.3414 175.618 76.3601C176.256 76.3804 177.096 76.5136 177.685 76.2455C177.897 76.0046 177.978 75.9223 177.94 75.5822C177.923 75.4333 177.871 75.2793 177.828 75.1364C177.84 75.1597 177.852 75.1831 177.863 75.2064C177.986 75.463 178.044 75.6802 178.088 75.9609C178.306 76.2383 178.506 76.4903 178.884 76.531C179.144 76.5594 179.524 76.5161 179.726 76.335C179.753 76.3109 179.779 76.2846 179.805 76.2591C181.947 76.4351 184.105 76.4207 186.253 76.433C186.306 76.3673 186.305 76.3715 186.358 76.2905C186.786 75.6344 187.165 56.8965 186.826 55.4048C189.445 53.7689 187.23 44.5845 188.332 42.2687C188.558 41.7935 189.408 41.6258 189.871 41.4689C189.875 41.4452 189.882 41.3979 189.882 41.3979C190.083 40.3074 189.257 39.1376 189.329 38.0253C189.347 37.7544 189.438 37.489 189.655 37.3121C190.064 36.9795 190.715 37.0984 191.209 37.1295C191.698 38.1022 191.51 39.4697 191.632 40.5405C191.749 41.5785 191.862 41.3755 192.543 41.9311C192.556 41.9415 192.568 41.9523 192.581 41.9629C192.806 42.8391 192.956 54.2702 192.746 54.7635C193.234 54.8717 193.642 55.0027 194.085 55.2369C194.127 55.3009 194.122 55.2878 194.159 55.373C194.455 56.0618 194.193 58.8412 194.185 59.7379C194.165 63.3179 194.186 66.8977 194.248 70.4772C194.286 72.2298 194.499 74.0888 194.397 75.8312C194.387 75.9995 194.332 76.159 194.268 76.3138C195.986 76.3405 197.748 76.3359 199.458 76.1476C200.047 76.3452 201.147 76.5153 201.741 76.313C202.288 76.3058 202.844 76.3198 203.387 76.2421C203.988 76.3694 204.996 76.4703 205.527 76.1493C206.302 76.1734 207.166 76.271 207.928 76.1416C208.577 76.3321 209.302 76.478 209.977 76.3486L210.115 76.2464C210.7 76.2638 211.314 76.3266 211.882 76.162C212.524 76.377 213.146 76.3859 213.806 76.2375L213.93 76.1306C215.663 76.1094 217.423 76.3685 219.165 76.4054C219.241 76.3007 219.306 76.1879 219.354 76.067C219.668 75.2569 219.673 62.7429 219.363 61.9918C221.318 61.9184 223.48 61.6817 225.416 62.0036C225.781 62.6691 225.792 68.2941 225.54 69.1912C226.422 69.2845 227.233 69.3502 228.116 69.2285C228.744 67.8492 228.299 64.4548 228.274 62.8596C228.247 61.0807 228.054 56.6213 228.34 55.0795C228.395 54.7817 228.499 54.5472 228.712 54.3279C229.078 54.1566 229.454 54.1956 229.848 54.2066C230.036 54.3347 230.1 54.3508 230.163 54.576C230.535 55.9023 230.31 57.7957 230.306 59.1903L230.187 69.6111C230.135 72.9508 230.284 76.366 230.029 79.6955C230.01 79.9513 229.956 80.1366 229.832 80.3585C230.719 80.3886 231.61 80.3572 232.497 80.3402C232.561 80.2406 232.612 80.1379 232.644 80.0238C232.805 79.4474 232.731 75.2009 232.467 74.7203C234.799 74.7212 237.124 74.929 239.456 74.8896C239.507 74.8124 239.551 74.7335 239.586 74.6482C239.826 74.0765 239.913 64.0391 239.649 63.4453C242.567 63.3465 245.534 63.2443 248.45 63.3681C248.48 63.4131 248.495 63.4343 248.522 63.4852C248.668 63.7605 248.875 76.0873 248.74 76.5187C249.92 76.534 251.106 76.5789 252.282 76.4712C252.291 76.4576 252.3 76.4445 252.308 76.4313C252.568 76.022 252.581 75.5902 252.603 75.1224C252.695 73.2324 252.633 71.3136 252.64 69.4206L252.717 59.0707C252.73 57.8432 253.054 54.5726 252.827 53.5971C254.224 53.0207 257.688 53.5492 259.361 53.4724C259.534 53.7524 259.56 53.9899 259.568 54.3122C259.786 62.4566 259.582 70.7287 259.579 78.8863C259.579 80.5548 259.779 86.7376 259.523 87.7004C259.487 87.8332 259.427 87.9549 259.355 88.0715L83.9699 88.0393L31.3468 88.0626L15.25 88.0618C12.3942 88.0605 9.38808 88.2399 6.55085 87.9498L1.90062 87.9082C1.82609 81.1516 1.67434 74.3318 1.94815 67.582C3.78899 67.5667 5.64094 67.7703 7.47659 67.5646C7.58296 65.6933 7.5123 63.7978 7.50725 61.9226C7.49695 58.1083 7.45381 54.2847 7.55836 50.472C10.4528 50.5102 13.339 50.478 16.2333 50.4398C16.4812 58.5783 15.9904 66.782 16.41 74.9129C17.6065 75.0024 18.8323 74.9846 20.0289 74.9197C20.2787 73.4844 20.1777 71.9341 20.1772 70.4793L20.1834 64.0976L20.2476 47.9585C20.2601 44.0764 20.1958 40.1744 20.4064 36.2972C22.9685 36.1175 26.8817 35.9971 29.3715 36.4075C29.6363 40.8514 29.4379 45.4103 29.4393 49.8651L29.4334 74.8726C30.2347 74.9171 31.0106 74.9125 31.8116 74.8628C32.2432 72.0062 31.8657 68.3747 31.8587 65.4367L31.9079 47.5217C31.9145 43.8253 31.7276 40.0022 32.0726 36.3247C34.8721 36.1533 37.8514 36.0967 40.6493 36.3079C40.9291 40.0324 40.694 43.9182 40.6773 47.6595C40.6475 53.6352 40.6677 59.6106 40.7378 65.586C40.7611 68.6733 40.6767 71.7789 40.8198 74.8624C42.0283 74.9142 43.2182 74.9477 44.4279 74.8951C45.0772 69.6751 44.1802 64.2656 44.877 59.0631C46.244 58.9859 47.5937 59.0783 48.9552 59.1865C50.2238 61.9693 51.5946 64.719 52.5388 67.632C54.8156 67.8759 61.2935 67.7924 63.3875 67.3462C63.4312 64.9616 62.8548 58.2449 63.5606 56.4491C63.9512 55.4544 65.2928 55.0757 66.2 54.6876C66.6835 52.3573 66.1148 49.9817 66.4401 47.6506C66.5694 46.7268 67.4555 46.0117 67.6502 45.0892C68.0361 43.265 67.7706 41.3104 67.97 39.4557C68.0883 38.3514 68.7979 37.429 69.0079 36.3547C69.1924 35.412 68.8806 34.3354 68.9497 33.3608C68.9765 32.9853 69.0473 32.7808 69.3285 32.5402C69.8871 32.4459 70.4635 32.6621 71.0005 32.8061C71.1345 34.0739 70.8724 35.4782 71.1935 36.6953C71.378 37.3932 71.7788 37.6075 72.3577 37.9533C72.5087 40.6544 72.2589 43.3714 72.3734 46.0779C73.3943 46.1487 74.3991 46.2323 75.4111 46.3952C75.3959 49.1457 74.9815 52.2208 75.4582 54.9251C76.1067 55.342 76.8388 55.6016 77.5509 55.8879C78.5354 58.6529 77.9751 63.2896 77.9802 66.3227C79.8061 66.4533 81.6541 66.3545 83.4822 66.3197C85.3353 66.2845 87.2113 66.3074 89.0567 66.1251C89.3057 64.0981 89.561 60.8292 91.3055 59.4834C92.3616 58.6682 93.6044 58.9396 94.8187 59.1063C95.0689 60.0861 95.0494 61.152 95.3514 62.1118C95.6186 62.9605 96.2358 63.6523 96.4109 64.5438C96.9322 67.1994 96.774 70.4696 96.8872 73.2006C97.47 73.2723 98.4523 73.4954 98.9482 73.1395C99.5428 72.0071 99.1844 69.9364 99.2934 68.6555C99.4011 67.3894 100.051 66.1942 100.193 64.9294C100.59 61.3742 100.413 57.5764 100.388 53.9941C99.6938 53.5746 98.9965 53.2455 98.2483 52.9342C98.1988 52.7733 98.156 52.6106 98.1198 52.446C97.8963 51.4187 97.4785 49.5012 98.0799 48.5935C98.5936 47.8186 99.4822 47.7456 100.323 47.5641L100.39 46.3998L100.539 45.75L100.643 46.3163L100.719 46.2437C100.92 44.7257 100.73 43.1752 100.744 41.6483L100.78 29.1767Z" fill="white"/>
<path d="M41.7321 110.587L41.7744 105.57C41.8091 101.999 42.1094 99.6967 44.7768 97.0204C45.9321 95.8616 48.5283 96.1047 50.0692 96.1267C51.2971 96.1441 52.5305 96.2128 53.7559 96.29L53.9416 105.326C53.9696 106.81 53.881 108.346 54.0354 109.819C54.0723 110.172 54.1011 110.581 54.3607 110.849C54.5982 111.094 55.0516 111.259 55.3612 111.399C55.1335 112.998 55.0974 114.601 55.0783 116.214H53.3271H42.1284H40.4403C40.4283 114.648 40.3831 113.075 40.4075 111.51C40.8362 111.181 41.255 110.845 41.7321 110.587Z" fill="white"/>
<path d="M42.129 116.213C42.1446 115.301 41.9647 113.477 42.4877 112.731C43.7644 112.107 51.628 112.305 53.3395 112.517L53.3276 116.213H42.129Z" fill="#232324"/>
<path d="M47.7616 97.9973C49.062 97.9409 50.3501 98.0758 51.6353 98.2645C52.1086 101.815 51.8113 106.794 51.7612 110.456L48.0457 110.583C46.643 110.597 45.2409 110.571 43.8395 110.504C43.613 107.46 43.325 102.146 45.1624 99.607C45.8758 98.6212 46.5884 98.1882 47.7616 97.9973Z" fill="#232324"/>
<path d="M227.813 96.2463C229.906 96.1818 234.828 95.8396 236.386 97.2032C238.183 98.7772 237 101.51 236.924 103.504C236.883 104.571 237.163 105.71 237.22 106.783C237.3 108.273 237.024 110.234 235.972 111.37C235.191 112.213 234.447 112.293 233.371 112.332C231.026 112.673 226.261 112.425 223.849 112.144C224.171 111.552 223.887 101.683 223.902 100.345C223.914 99.2522 224.296 97.4615 224.021 96.4461C225.285 96.3717 226.549 96.3051 227.813 96.2463Z" fill="white"/>
<path d="M228.325 105.12C230.36 105.08 233.33 104.835 235.212 105.651C235.552 106.005 235.652 106.717 235.708 107.199C235.8 107.994 235.601 108.754 235.095 109.383C234.352 110.305 233.553 110.388 232.451 110.498C230.166 110.774 227.881 110.6 225.605 110.334C225.624 110.299 225.663 110.23 225.675 110.187C225.714 110.052 225.845 106.165 225.82 105.756C225.81 105.6 225.745 105.458 225.67 105.322C226.553 105.222 227.437 105.171 228.325 105.12Z" fill="#232324"/>
<path d="M227.618 98.1479C229.36 98.0567 233.678 97.767 234.999 98.8693C235.401 99.2048 235.605 99.6786 235.641 100.196C235.699 101.044 235.374 102.414 234.825 103.066C234.363 103.205 233.797 103.168 233.315 103.185C231.303 103.532 227.76 103.286 225.628 103.252C225.663 103.192 225.696 103.128 225.716 103.061C225.835 102.661 225.853 98.7272 225.716 98.4202L227.618 98.1479Z" fill="#232324"/>
<path d="M79.383 96.3718C83.7457 96.2691 88.203 96.1775 92.5598 96.4244C92.7732 99.675 92.7876 103.141 92.5709 106.388C90.9235 106.642 89.2753 106.6 87.6135 106.592C85.4826 106.576 83.3517 106.578 81.2233 106.701C81.1512 107.605 81.3166 110.381 81.066 111.025C80.982 111.241 80.8569 111.34 80.6486 111.428C80.3229 111.565 79.7371 111.578 79.4042 111.451C78.9143 110.689 79.0263 98.1328 79.383 96.3718Z" fill="white"/>
<path d="M83.6687 98.142C85.4246 98.1352 87.2217 98.047 88.9734 98.1399C89.4383 98.1645 90.0003 98.2871 90.3125 98.6646C91.0746 99.5875 90.7324 103.41 90.6132 104.66C89.9316 104.758 89.2428 104.763 88.5557 104.784C86.0876 104.782 83.6123 104.819 81.1454 104.729C81.0415 102.62 80.9686 100.359 81.2757 98.2672L83.6687 98.142Z" fill="#232324"/>
<path d="M251.381 96.2461C252.774 96.2597 254.146 96.2359 255.5 96.6126C255.513 96.627 255.527 96.6405 255.54 96.6554C256.315 97.5503 255.977 107.939 255.836 109.805C255.8 110.286 255.783 111.052 255.372 111.363C255.116 111.556 254.797 111.564 254.494 111.538C253.146 110.703 254.538 108.105 253.782 106.865C253.77 106.845 253.756 106.827 253.743 106.807C251.624 106.408 249.176 106.607 247.017 106.628L244.353 106.781C244.739 107.453 244.421 109.952 244.232 110.729C244.151 111.061 243.972 111.318 243.669 111.479C243.389 111.628 243.034 111.59 242.747 111.496C242.569 111.228 242.567 110.903 242.561 110.589C242.539 109.451 242.656 108.3 242.662 107.158C242.678 103.829 242.519 100.831 244.987 98.2565C246.849 96.3152 248.857 96.2894 251.381 96.2461Z" fill="white"/>
<path d="M248.454 98.2746C249.969 98.0605 252.199 97.9981 253.633 98.628C253.885 98.8969 253.975 99.2307 254.041 99.5835C254.257 100.744 254.502 103.672 253.821 104.656C252.524 104.717 251.21 104.691 249.911 104.707C248.043 104.76 246.149 104.76 244.284 104.661C244.696 103.922 244.369 102.724 244.722 101.832C245.371 100.195 246.88 98.955 248.454 98.2746Z" fill="#232324"/>
<path d="M139.203 96.2461L142.084 96.2949C142.313 96.6011 142.338 97.0028 142.377 97.3705C142.558 99.056 142.951 110.816 142.226 111.631C142.107 111.764 141.964 111.737 141.796 111.753C140.458 111.061 141.218 107.939 140.488 106.805C140.475 106.785 140.46 106.766 140.446 106.746L132.418 106.728L131.02 106.852C131.049 106.924 131.075 106.997 131.097 107.072C131.273 107.634 131.352 110.586 131.089 111.055C130.976 111.256 130.785 111.409 130.558 111.467C130.269 111.542 129.944 111.589 129.674 111.437C129.063 110.51 129.151 106.794 129.132 105.521C129.091 102.651 129.534 100.686 131.589 98.5814C133.907 96.2083 136.074 96.2741 139.203 96.2461Z" fill="white"/>
<path d="M135.794 98.2751C137.253 98.088 138.964 98.1245 140.412 98.3785C140.647 98.6453 140.688 98.9927 140.735 99.3329C140.906 100.568 141.229 103.744 140.455 104.762C138.894 104.942 137.166 104.796 135.587 104.794C133.951 104.795 132.348 104.755 130.725 104.538C131.143 103.985 131.139 102.927 131.464 102.244C132.347 100.383 133.86 98.9685 135.794 98.2751Z" fill="#232324"/>
<path d="M33.6979 95.3995C33.7508 95.3978 33.8037 95.3961 33.8565 95.3966C34.2702 95.3999 34.7378 95.4309 35.0386 95.7418C35.3109 97.1092 35.1116 98.7969 35.1337 100.21C35.1858 103.548 35.4776 107.945 35.1941 111.154C35.025 111.363 34.9702 111.422 34.7117 111.502C34.2771 111.637 33.7567 111.648 33.3593 111.436C32.6938 110.321 33.4019 100.254 33.6298 98.4428C32.0022 100.658 30.2141 102.748 28.5621 104.944C27.0545 106.949 25.2833 110.11 23.3655 111.657C23.3073 111.678 23.2489 111.698 23.1903 111.717C22.7645 111.859 22.3245 111.987 21.9005 111.777C21.3327 110.93 21.5341 98.2778 21.7183 96.392C21.746 96.1087 21.728 96.0752 21.9507 95.8919C22.5474 95.7605 23.1284 95.8797 23.7229 95.9675C23.7939 98.3639 23.1247 107.181 23.7436 108.616C23.9658 108.586 24.0944 108.376 24.2248 108.198C25.1936 106.877 26.021 105.419 26.9512 104.065C28.3067 102.093 29.7685 100.217 31.2129 98.3108C31.9195 97.3786 32.6845 96.0921 33.6582 95.4262L33.6979 95.3995Z" fill="white"/>
<path d="M177.353 96.2462C177.938 96.2279 178.529 96.2767 179.114 96.306C179.177 96.4222 179.228 96.5308 179.263 96.6589C179.407 97.1945 179.263 97.6221 179 98.0899C175.504 98.3868 171.994 97.9024 168.505 98.4899C168.517 98.5153 168.529 98.5399 168.539 98.5658C168.658 98.8589 168.464 102.838 168.355 103.102C171.954 103.348 175.553 103.145 179.149 103.315C179.182 103.375 179.186 103.377 179.21 103.454C179.364 103.963 179.254 104.597 178.994 105.048C175.501 105.313 171.927 105.009 168.413 105.181C168.71 105.744 168.565 109.4 168.395 110.066C169.011 110.217 169.624 110.326 170.251 110.425C173.167 110.71 176.26 110.515 179.193 110.507C179.254 110.607 179.28 110.677 179.305 110.794C179.404 111.264 179.389 111.669 179.131 112.073C177.564 112.686 168.481 112.324 166.469 112.11C166.518 112.018 166.563 111.921 166.594 111.82C166.644 111.658 166.72 97.6573 166.624 96.7577C166.608 96.602 166.546 96.4637 166.472 96.3272C170.099 96.3379 173.726 96.3109 177.353 96.2462Z" fill="white"/>
<path d="M63.8564 96.2458C66.8398 96.066 69.9352 96.1381 72.9182 96.3315C72.9526 96.9512 72.9034 97.5742 72.8724 98.1935C69.4805 98.0777 66.0335 97.922 62.6484 98.2236C62.4521 99.9125 62.4809 101.587 62.5492 103.281C65.9487 103.483 69.4738 103.282 72.8839 103.277C72.8974 103.94 72.8427 104.597 72.7944 105.258C69.4284 105.122 66.0017 104.924 62.6404 105.231C62.4678 106.61 62.1543 108.94 62.6094 110.241C63.5167 110.968 71.3332 110.462 72.8847 110.417C72.8868 111.048 72.8164 111.67 72.7528 112.297C69.8025 112.544 63.4242 112.571 60.6075 112.14C60.3475 110.08 60.4739 107.889 60.4683 105.808C60.4603 102.714 60.1943 99.3709 60.7559 96.3273C61.7891 96.3111 62.8232 96.2734 63.8564 96.2458Z" fill="white"/>
<path d="M185.412 96.3729C187.254 96.2792 189.138 96.3602 190.983 96.3479C193.926 96.3288 196.879 96.2516 199.82 96.345C200.192 97.0512 200.181 98.7053 199.982 99.4836C199.898 99.8132 199.821 99.9285 199.534 100.099C198.613 99.9226 198.851 99.0883 198.258 98.5908C198.242 98.5772 198.224 98.5649 198.207 98.5522C195.927 97.8384 189.652 98.2142 187.118 98.5497C187.127 98.5666 187.136 98.5827 187.144 98.5997C187.19 98.699 187.222 109.803 187.126 110.067C187.835 110.231 188.543 110.343 189.264 110.444C191.606 110.609 195.032 110.728 197.35 110.333C198.539 110.13 198.374 109.599 198.983 108.733C199.366 108.556 199.469 108.576 199.876 108.612C199.997 108.751 200.057 108.798 200.094 108.986C200.259 109.812 200.218 111.397 199.754 112.108C198.272 112.451 196.393 112.301 194.867 112.309C191.595 112.328 188.334 112.389 185.071 112.1C185.081 112.079 185.09 112.057 185.101 112.036C185.573 111.05 185.282 98.883 185.412 96.3729Z" fill="white"/>
<path d="M122.182 95.9734C122.735 95.9403 123.276 95.9717 123.828 96.0061C124.029 96.5905 123.997 97.2255 123.965 97.8341C123.772 101.46 120.994 102.239 120.774 103.958C120.616 105.19 122.441 106.355 123.096 107.261C123.423 107.712 123.615 108.116 123.533 108.667C123.649 108.867 123.723 109.073 123.764 109.3C123.892 110.011 123.854 111.073 123.43 111.668C123.343 111.698 123.219 111.772 123.133 111.736C122.439 111.441 121.904 109.581 121.61 108.903C120.933 107.346 119.595 105.339 117.952 104.692C115.929 104.401 113.497 104.582 111.445 104.645C110.993 106.88 111.566 109.294 111.102 111.5C110.938 111.54 110.767 111.578 110.599 111.579C110.363 111.581 109.825 111.59 109.664 111.416C108.916 110.607 109.186 97.8197 109.296 95.959L111.341 96.0561C111.28 98.282 111.041 100.52 111.32 102.739C113.376 102.884 116.15 103.015 118.181 102.665C118.215 102.652 118.249 102.64 118.282 102.626C119.657 102.066 121.156 100.373 121.74 99.0221C122.052 98.3011 122.474 96.7127 122.182 95.9734Z" fill="white"/>
<path d="M10.4651 94.7218C11.9975 94.6989 13.539 94.7608 15.0718 94.7888C15.4357 98.7668 15.1873 102.998 15.1672 106.999C15.1617 108.095 15.3674 109.41 15.214 110.468C15.1646 110.808 15.0141 111.089 14.7277 111.292C14.4015 111.523 14.0249 111.594 13.6399 111.516C13.3131 111.245 13.1847 111.053 13.12 110.624C12.98 109.694 13.1657 108.653 13.1733 107.708C13.2016 104.17 13.5108 100.415 13.1372 96.9053C11.8156 96.6482 9.64871 96.082 8.41894 96.7907C7.78858 97.1542 7.69001 97.8469 7.50042 98.4967C6.44676 102.258 5.00191 106.625 3.04439 109.988C2.33075 111.215 1.69717 111.365 0.393555 111.714C0.737685 109.961 1.8425 108.53 2.58355 106.927C4.37261 103.056 5.60416 99.0892 6.10965 94.855C7.54237 94.7273 9.025 94.76 10.4651 94.7218Z" fill="white"/>
<path d="M159.451 97.3875C159.975 97.3234 160.539 97.2861 161.02 97.5317C161.076 97.6267 161.114 97.6937 161.144 97.801C161.314 98.4186 161.288 108.911 161.199 110.203C161.17 110.624 161.122 111.166 160.901 111.528C160.794 111.704 160.721 111.683 160.53 111.729C158.581 111.01 160.131 106.835 159.141 105.368C159.127 105.346 159.111 105.324 159.096 105.303C156.74 104.878 152.688 105.232 150.035 105.072L148.557 104.884C148.571 104.799 148.571 104.743 148.543 104.661C148.039 103.176 147.456 99.5922 147.958 98.0916C148.047 97.8269 148.208 97.6013 148.465 97.4863C148.781 97.3451 149.422 97.4159 149.736 97.5529C149.816 98.047 149.905 102.204 149.84 102.768C152.833 103.487 156.058 103.285 159.113 103.154C159.751 102.284 159.368 98.6277 159.451 97.3875Z" fill="white"/>
<path d="M216.875 96.246C217.513 96.2244 218.14 96.266 218.776 96.3105C218.85 96.4161 218.896 96.5052 218.937 96.6282C219.107 97.1363 219.029 97.5787 218.795 98.0465C216.861 98.2327 214.899 98.1878 212.957 98.2493C213.011 98.3481 213.068 98.4601 213.09 98.5708C213.294 99.5548 213.054 103.369 213.046 104.659C213.03 107.068 213.187 109.529 213.073 111.93C213.062 112.157 213.001 112.322 212.879 112.512C212.246 112.632 211.578 112.6 210.935 112.607C210.977 112.526 211.018 112.436 211.037 112.347C211.187 111.629 211.199 109.147 210.822 108.544C210.897 108.426 210.963 108.299 210.996 108.162C211.226 107.209 211.134 100.189 210.982 99.0064C210.95 98.7531 210.854 98.5368 210.72 98.3222C209.5 98.2213 205.942 98.547 205.114 97.8993C204.894 97.7263 204.809 97.4773 204.791 97.1999C204.77 96.8657 204.912 96.7147 205.105 96.4708C205.439 96.3012 205.739 96.2227 206.114 96.2074C207.183 96.1637 208.289 96.3317 209.364 96.3419C211.865 96.3661 214.374 96.291 216.875 96.246Z" fill="white"/>
</g>
<defs>
<clipPath id="clip0_1_1042">
<rect width="260" height="115.367" fill="white" transform="translate(0 0.84668)"/>
</clipPath>
</defs>
</svg>
