<svg width="180" height="80" viewBox="0 0 180 80" fill="none" xmlns="http://www.w3.org/2000/svg">
<g clip-path="url(#clip0_1_491)">
<path d="M69.7118 0.130615H70.9615C70.9903 1.15839 70.7906 2.68738 70.9565 3.60905C71.2798 3.76344 71.676 3.85432 71.811 4.21491C72.1117 5.01734 72.1097 6.64394 71.7353 7.4232C71.5952 7.71478 71.3624 7.83385 71.064 7.92623C71.0426 7.93292 71.0206 7.93862 70.9988 7.94485C71.1518 8.65331 71.057 9.49147 71.047 10.2159L70.9862 14.8839C70.9765 15.6912 70.9028 16.594 71.005 17.3943C71.6287 17.5605 72.1907 17.8179 72.7554 18.129C72.1948 18.5734 71.5896 18.9373 70.9797 19.3088L70.9812 27.3103C70.9806 28.5447 71.0808 29.87 70.9701 31.09C70.9563 31.3258 70.9815 31.7087 70.8514 31.9031L70.8861 31.7525L70.8036 31.781C70.8638 30.6775 70.8925 19.9433 70.7005 19.6801C70.3866 19.6857 70.0827 19.7026 69.7714 19.7436L69.7465 28.3778C69.7368 29.4349 69.8677 30.5083 69.7286 31.5593L69.6763 31.6095L69.6041 31.2175L69.501 31.6673C69.5008 27.5661 69.5302 23.465 69.5894 19.3643C69.2455 19.0458 68.7575 18.8031 68.4815 18.4221C68.3476 18.2373 68.3396 18.15 68.3793 17.9321C68.6474 17.6156 69.0919 17.5093 69.4793 17.4085C69.5465 16.3983 69.5025 15.3606 69.5045 14.3474C69.4892 12.2476 69.5107 10.1481 69.5688 8.04906C69.2951 7.93081 69.0036 7.84022 68.7228 7.73921C68.6045 6.65322 68.4313 5.32533 68.781 4.26785L68.7998 4.21247C68.9064 3.8898 69.178 3.69996 69.4311 3.49083C69.6775 2.53911 69.6226 1.14259 69.7118 0.130615Z" fill="#FC0502"/>
<path d="M138.179 48.8203C138.614 48.8673 139.066 48.8925 139.487 49.0168C139.992 50.0498 139.27 51.3773 139.667 52.3766C139.256 52.5166 138.494 52.3989 138.086 52.262C138.256 51.9769 138.35 49.323 138.239 48.9574C138.224 48.9093 138.203 48.8647 138.179 48.8203Z" fill="#FC0502"/>
<path d="M144.007 48.8337C144.421 48.8884 144.875 48.9124 145.27 49.0469C145.717 49.8491 145.427 51.4219 145.464 52.3304L145.368 52.4011C144.901 52.4907 144.399 52.3897 143.95 52.2579C144.132 51.8785 144.17 49.2516 144.027 48.8763C144.022 48.8616 144.014 48.8481 144.007 48.8337Z" fill="#FC0502"/>
<path d="M140.806 52.3274C141.308 51.7354 140.89 49.7895 141.201 48.9506C141.301 48.9188 141.402 48.8907 141.507 48.8895C141.748 48.8868 141.982 48.9506 142.148 49.1376C142.673 49.731 142.344 51.517 142.288 52.2631C141.92 52.4854 141.222 52.4155 140.806 52.3274Z" fill="#FC0502"/>
<path d="M146.688 52.272C147.1 51.6615 146.668 49.0211 147.242 48.911C147.467 48.8679 147.676 48.8764 147.869 49.0205C148.154 49.2331 148.218 49.6337 148.243 49.964C148.291 50.598 148.267 51.6339 148.105 52.2503L148.02 52.3243C147.563 52.427 147.132 52.4209 146.688 52.272Z" fill="#FC0502"/>
<path d="M123.111 51.562C123.119 51.5429 123.127 51.5238 123.134 51.5047C123.348 50.9439 123.011 49.0813 123.636 48.8544C123.768 48.8068 123.867 48.8315 123.986 48.9022C124.299 49.0887 124.462 49.5952 124.508 49.9329C124.593 50.5551 124.689 51.7564 124.48 52.3392C124.462 52.3569 124.444 52.3751 124.426 52.3918C124.286 52.5172 124.023 52.5471 123.843 52.5275C123.581 52.4993 123.442 52.3249 123.292 52.1328C123.261 51.9384 123.221 51.7881 123.136 51.6104C123.128 51.5943 123.12 51.5781 123.111 51.562Z" fill="#FC0502"/>
<path d="M69.7714 19.7437C70.0826 19.7027 70.3865 19.6858 70.7004 19.6802C70.8925 19.9433 70.8637 30.6775 70.8035 31.781L70.886 31.7525L70.8514 31.9032C70.9814 31.7088 70.9562 31.3259 70.97 31.0901C71.0067 31.552 71.034 32.0171 71.0916 32.4769C71.6609 32.5122 72.235 32.5327 72.8023 32.5859C72.972 33.7355 72.8954 34.8936 72.8343 36.0488C72.1313 36.3089 71.5631 36.5808 70.9873 37.0656C71.0126 39.743 70.8931 42.4965 71.2184 45.1551C72.3706 46.5149 71.9854 48.4156 72.2203 50.0635C72.6549 50.2465 73.0765 50.3771 73.5343 50.4884C73.5675 51.2742 73.5038 52.6925 74.1016 53.2606C74.1633 53.3194 74.2279 53.3605 74.3045 53.3966C74.4014 53.3749 74.4881 53.3781 74.5494 53.2906C74.6998 53.0757 74.7377 52.7233 74.7488 52.4696C74.8037 51.2122 74.6551 49.8912 74.6108 48.63C74.5535 47.0044 74.5773 45.3697 74.575 43.7427C74.5735 42.9167 74.4111 41.5395 74.7744 40.7863C74.8586 40.6113 75.1291 40.5435 75.2979 40.5015C76.0338 40.3186 76.8586 40.33 77.615 40.2933C77.8617 41.6725 77.8658 43.0843 77.8963 44.4815C77.9069 44.9701 77.8464 45.5488 77.9277 46.0236C77.9597 46.2107 78.0149 46.28 78.1509 46.4021C78.5 46.4591 78.9299 46.5328 79.2318 46.29C79.4849 46.0862 79.5604 45.767 79.5883 45.4566C79.6608 44.6456 79.5125 43.7888 79.526 42.9678C79.5618 40.8083 79.6499 38.6498 79.6743 36.4904C79.6919 34.9171 79.6167 33.2924 79.7562 31.7255C79.8208 31.0029 80.2378 30.3475 80.3541 29.6339C80.5029 28.7239 80.7367 23.3631 80.4234 22.7709C82.7809 22.6364 85.1404 22.5669 87.5018 22.5624C87.6178 22.7686 87.6463 22.9542 87.658 23.1869C87.7805 25.6501 87.6656 28.1687 87.6668 30.6391C87.6674 35.0959 87.6936 39.5526 87.7452 44.0093C87.7514 44.7933 87.9496 49.7937 87.8377 50.1783C87.8242 50.2244 87.8019 50.267 87.7778 50.3081C88.2911 50.3222 88.8164 50.3572 89.3288 50.3249C89.7986 49.6759 89.5179 48.3936 89.6292 47.6116C89.7323 46.8855 90.1475 46.2421 90.2711 45.5256C90.6038 43.6005 90.4658 41.5142 90.5398 39.558C90.563 38.9461 90.7139 38.2185 90.6637 37.6253C91.8958 37.1937 93.4433 37.0656 94.0673 35.7381C94.2411 35.3681 94.3212 34.9641 94.3641 34.5597C94.4487 33.7587 94.6166 28.1483 94.4704 27.7267C95.011 27.6055 95.8018 27.5181 96.278 27.2485C96.2863 27.234 96.2954 27.2197 96.303 27.2048C96.8224 26.2017 95.8681 20.7309 96.8923 20.3811C97.1405 20.2962 97.4326 20.3226 97.6869 20.3612C97.9618 20.647 97.8211 25.4101 97.8053 26.2541C97.7997 26.5608 97.8296 26.9194 97.7051 27.2056C98.2513 27.273 98.7887 27.356 99.3292 27.4608C99.4719 27.7594 99.7471 34.9141 99.6249 35.2533C99.6032 35.3135 99.5768 35.3696 99.5448 35.4248C100.18 35.4923 100.874 35.5152 101.425 35.8752C101.435 35.8867 101.445 35.8978 101.455 35.9096C102.039 36.6099 101.806 37.1088 102.935 37.2312C104.04 37.3513 105.189 37.238 106.3 37.2694C106.46 37.4932 106.487 37.6923 106.503 37.9612C106.672 40.8169 106.454 43.7268 106.554 46.5936C106.567 46.9612 106.701 47.6331 106.62 47.9725C106.613 48.0042 106.59 48.0477 106.578 48.075C106.874 48.2159 107.178 48.3616 107.437 48.5654C107.832 48.8772 108.365 49.675 108.896 49.6753C108.936 49.6354 109.022 49.569 109.046 49.5226C109.333 48.9765 109.284 41.7724 109.284 40.6536C109.284 39.8349 109.132 38.0109 109.458 37.2903C109.527 37.1376 109.867 37.07 110.017 37.0709C110.202 37.0721 110.342 37.1531 110.458 37.2917C110.64 37.5064 110.673 37.8608 110.687 38.1301C110.735 39.0697 110.633 40.0434 110.624 40.9875C110.608 42.7141 110.641 44.4462 110.643 46.1734C110.646 47.514 110.657 48.8545 110.676 50.1951C110.683 50.7177 110.756 51.2983 110.716 51.813C110.711 51.8826 110.691 51.9331 110.667 51.9977C111.815 52.4009 113.388 52.8032 114.377 53.5258C114.384 53.5094 114.393 53.4932 114.399 53.4762C114.558 53.0586 114.249 52.4916 114.19 52.0641C114.102 51.4372 113.965 49.3004 114.619 48.9536C114.7 48.9104 114.839 48.9183 114.926 48.9462C115.14 49.0152 115.328 49.199 115.465 49.3691C115.736 50.0894 115.151 52.1401 115.877 52.4655C116.196 52.6082 116.782 52.5254 117.123 52.4596C117.132 52.4367 117.141 52.4141 117.15 52.3912C117.478 51.49 116.872 49.4939 117.692 48.9738C117.977 48.968 118.206 48.9609 118.47 49.081C118.765 49.5062 118.842 51.6944 118.734 52.2391C118.722 52.3016 118.7 52.3375 118.669 52.3921C119.16 52.4197 119.657 52.4634 120.149 52.4502C120.436 51.9863 120.322 49.6087 120.196 49.0663C120.189 49.0364 120.181 49.0064 120.173 48.9765C120.64 49.0073 121.07 49.0361 121.518 49.1855C121.686 49.5473 121.724 52.0394 121.601 52.3703C121.596 52.3838 121.588 52.3962 121.582 52.4091C122.023 52.4232 122.605 52.5154 123.013 52.3298C123.16 52.163 123.216 52.1061 123.189 51.8706C123.178 51.7675 123.142 51.6609 123.112 51.5619C123.12 51.5781 123.128 51.5943 123.136 51.6104C123.222 51.7881 123.261 51.9384 123.292 52.1328C123.443 52.3248 123.581 52.4992 123.843 52.5274C124.023 52.5471 124.286 52.5172 124.426 52.3918C124.445 52.375 124.462 52.3568 124.48 52.3392C125.963 52.4611 127.457 52.4511 128.944 52.4596C128.981 52.4141 128.981 52.417 129.017 52.3609C129.314 51.9067 129.576 38.9343 129.341 37.9016C131.154 36.7691 129.621 30.4106 130.384 28.8074C130.54 28.4784 131.129 28.3623 131.449 28.2537C131.452 28.2373 131.457 28.2045 131.457 28.2045C131.596 27.4496 131.024 26.6397 131.074 25.8697C131.086 25.6821 131.149 25.4984 131.3 25.3759C131.583 25.1457 132.034 25.2279 132.376 25.2495C132.714 25.9229 132.584 26.8696 132.668 27.6109C132.749 28.3295 132.828 28.189 133.299 28.5736C133.308 28.5809 133.317 28.5884 133.325 28.5957C133.481 29.2023 133.585 37.1161 133.44 37.4576C133.778 37.5325 134.06 37.6232 134.367 37.7853C134.396 37.8297 134.393 37.8206 134.418 37.8796C134.623 38.3565 134.442 40.2807 134.436 40.9014C134.422 43.3799 134.437 45.8582 134.479 48.3363C134.506 49.5497 134.654 50.8367 134.583 52.0429C134.576 52.1595 134.538 52.2699 134.493 52.3771C135.683 52.3956 136.903 52.3924 138.086 52.262C138.494 52.3988 139.256 52.5166 139.667 52.3765C140.046 52.3715 140.431 52.3812 140.806 52.3275C141.223 52.4156 141.921 52.4854 142.288 52.2632C142.825 52.2799 143.423 52.3474 143.951 52.2579C144.4 52.3897 144.902 52.4907 145.369 52.4012L145.464 52.3304C145.869 52.3424 146.294 52.3859 146.687 52.272C147.132 52.4208 147.563 52.427 148.02 52.3242L148.105 52.2502C149.306 52.2356 150.524 52.415 151.73 52.4405C151.782 52.368 151.828 52.2899 151.86 52.2062C152.078 51.6453 152.082 42.9818 151.867 42.4618C153.221 42.411 154.717 42.2472 156.058 42.47C156.31 42.9308 156.318 46.825 156.143 47.446C156.754 47.5106 157.316 47.5561 157.927 47.4719C158.362 46.517 158.053 44.167 158.036 43.0626C158.017 41.8311 157.884 38.7438 158.082 37.6764C158.12 37.4703 158.192 37.3079 158.339 37.1561C158.592 37.0374 158.853 37.0645 159.126 37.0721C159.256 37.1608 159.3 37.1719 159.344 37.3279C159.601 38.2461 159.445 39.5569 159.443 40.5223L159.361 47.7367C159.325 50.0488 159.428 52.4132 159.251 54.7183C159.238 54.8953 159.201 55.0237 159.115 55.1772C159.729 55.1981 160.345 55.1763 160.96 55.1646C161.004 55.0956 161.04 55.0245 161.062 54.9455C161.173 54.5465 161.122 51.6066 160.939 51.2739C162.553 51.2745 164.163 51.4184 165.778 51.3911C165.813 51.3376 165.843 51.283 165.868 51.224C166.033 50.8282 166.094 43.8792 165.911 43.4681C167.931 43.3997 169.986 43.3289 172.004 43.4147C172.025 43.4458 172.035 43.4605 172.054 43.4957C172.155 43.6863 172.298 52.2203 172.205 52.5189C173.021 52.5295 173.843 52.5606 174.657 52.486C174.663 52.4766 174.669 52.4675 174.675 52.4584C174.855 52.1751 174.864 51.8761 174.879 51.5523C174.943 50.2438 174.9 48.9154 174.905 47.6049L174.958 40.4395C174.967 39.5897 175.191 37.3255 175.034 36.6501C176.001 36.2511 178.4 36.617 179.558 36.5638C179.677 36.7576 179.696 36.922 179.701 37.1452C179.852 42.7836 179.711 48.5105 179.709 54.158C179.709 55.3132 179.847 59.5935 179.67 60.2601C179.645 60.352 179.603 60.4363 179.554 60.517L58.1333 60.4947L21.7019 60.5109L10.558 60.5103C8.58087 60.5094 6.49974 60.6336 4.53551 60.4328L1.31612 60.404C1.26451 55.7263 1.15946 51.0049 1.34902 46.332C2.62344 46.3214 3.90556 46.4623 5.1764 46.3199C5.25004 45.0244 5.20112 43.7121 5.19763 42.414C5.19049 39.7733 5.16063 37.1261 5.23301 34.4866C7.23689 34.513 9.235 34.4907 11.2387 34.4643C11.4104 40.0986 11.0706 45.7782 11.3611 51.4072C12.1894 51.4692 13.038 51.4568 13.8665 51.4119C14.0394 50.4182 13.9695 49.345 13.9691 48.3378L13.9734 43.9197L14.0179 32.7465C14.0265 30.0588 13.982 27.3575 14.1278 24.6733C15.9016 24.5489 18.6107 24.4655 20.3344 24.7496C20.5177 27.8262 20.3804 30.9823 20.3814 34.0664L20.3773 51.3793C20.932 51.4101 21.4692 51.4069 22.0237 51.3726C22.3225 49.3949 22.0612 46.8808 22.0563 44.8467L22.0904 32.4441C22.095 29.885 21.9656 27.2382 22.2044 24.6923C24.1425 24.5737 26.2051 24.5345 28.1421 24.6807C28.3358 27.2592 28.1731 29.9493 28.1615 32.5395C28.1409 36.6765 28.1548 40.8133 28.2034 44.9501C28.2195 47.0875 28.1611 49.2375 28.2602 51.3723C29.0968 51.4081 29.9206 51.4313 30.758 51.3949C31.2076 47.7811 30.5866 44.036 31.069 40.4342C32.0154 40.3808 32.9498 40.4448 33.8923 40.5197C34.7706 42.4463 35.7196 44.3499 36.3733 46.3666C37.9495 46.5355 42.4343 46.4776 43.8839 46.1687C43.9142 44.5179 43.5151 39.8678 44.0038 38.6246C44.2742 37.936 45.203 37.6738 45.8311 37.4051C46.1658 35.7918 45.772 34.1472 45.9973 32.5333C46.0868 31.8938 46.7002 31.3987 46.835 30.76C47.1022 29.4971 46.9184 28.1439 47.0564 26.8599C47.1383 26.0954 47.6296 25.4568 47.7749 24.7131C47.9027 24.0605 47.6869 23.3151 47.7347 22.6404C47.7532 22.3804 47.8023 22.2388 47.9969 22.0723C48.3837 22.007 48.7827 22.1566 49.1545 22.2563C49.2472 23.1341 49.0658 24.1062 49.2881 24.9489C49.4158 25.432 49.6933 25.5804 50.0941 25.8198C50.1986 27.6898 50.0257 29.5708 50.105 31.4445C50.8117 31.4936 51.5074 31.5514 52.208 31.6642C52.1974 33.5684 51.9105 35.6973 52.2406 37.5695C52.6896 37.8582 53.1964 38.0379 53.6894 38.2361C54.3709 40.1503 53.983 43.3603 53.9866 45.4602C55.2507 45.5506 56.5301 45.4822 57.7956 45.4581C59.0785 45.4337 60.3773 45.4496 61.6549 45.3233C61.8273 43.92 62.0041 41.657 63.2118 40.7252C63.9429 40.1609 64.8033 40.3488 65.644 40.4642C65.8172 41.1425 65.8037 41.8804 66.0128 42.5449C66.1978 43.1325 66.625 43.6114 66.7463 44.2286C67.1072 46.0671 66.9977 48.3311 67.076 50.2218C67.4795 50.2714 68.1596 50.4259 68.5028 50.1795C68.9145 49.3955 68.6664 47.9619 68.7419 47.0752C68.8164 46.1987 69.2666 45.3712 69.3644 44.4956C69.6395 42.0343 69.5171 39.405 69.4997 36.925C69.0191 36.6346 68.5363 36.4067 68.0183 36.1912C67.9841 36.0798 67.9544 35.9671 67.9294 35.8532C67.7746 35.142 67.4854 33.8145 67.9018 33.1861C68.2574 32.6496 68.8725 32.5991 69.4548 32.4734L69.5009 31.6674L69.604 31.2175L69.6762 31.6095L69.7285 31.5593C69.8677 30.5084 69.7367 29.435 69.7464 28.3779L69.7714 19.7437Z" fill="#D11717"/>
<path d="M28.8917 76.1042L28.921 72.6313C28.945 70.1592 29.1529 68.565 30.9995 66.7122C31.7994 65.9099 33.5967 66.0782 34.6635 66.0935C35.5136 66.1055 36.3675 66.1531 37.2158 66.2065L37.3444 72.4622C37.3638 73.4893 37.3024 74.5532 37.4093 75.573C37.4349 75.8173 37.4548 76.1 37.6346 76.2859C37.799 76.4556 38.1129 76.5699 38.3272 76.6665C38.1696 77.7738 38.1446 78.8831 38.1314 80.0001H36.919H29.1661H27.9973C27.9891 78.916 27.9578 77.8272 27.9746 76.7437C28.2714 76.5155 28.5614 76.2833 28.8917 76.1042Z" fill="#FC0502"/>
<path d="M29.1655 80.0001C29.1764 79.3681 29.0518 78.1058 29.4139 77.589C30.2978 77.1574 35.7418 77.2942 36.9266 77.4413L36.9184 80.0001H29.1655Z" fill="white"/>
<path d="M33.066 67.3884C33.9663 67.3493 34.8581 67.4427 35.7478 67.5734C36.0755 70.0311 35.8697 73.4787 35.835 76.0134L33.2627 76.1012C32.2916 76.1112 31.3209 76.0932 30.3507 76.0472C30.1939 73.9397 29.9945 70.2604 31.2666 68.5027C31.7605 67.8203 32.2538 67.5205 33.066 67.3884Z" fill="white"/>
<path d="M157.716 66.1766C159.165 66.132 162.573 65.895 163.651 66.8391C164.896 67.9288 164.077 69.8207 164.024 71.2014C163.995 71.9396 164.189 72.7283 164.229 73.4712C164.284 74.5027 164.093 75.8605 163.364 76.6469C162.824 77.2303 162.309 77.2861 161.564 77.3129C159.941 77.5487 156.642 77.3772 154.972 77.1825C155.195 76.7732 154.998 69.9402 155.008 69.0141C155.017 68.2577 155.281 67.0179 155.091 66.3149C155.966 66.2635 156.841 66.2174 157.716 66.1766Z" fill="#FC0502"/>
<path d="M158.071 72.3202C159.48 72.292 161.536 72.1229 162.839 72.6872C163.075 72.9327 163.144 73.4254 163.182 73.759C163.246 74.3099 163.109 74.8358 162.758 75.2709C162.244 75.9093 161.691 75.9672 160.927 76.0429C159.346 76.2344 157.764 76.1134 156.188 75.9293C156.201 75.9055 156.228 75.8573 156.237 75.8277C156.264 75.7343 156.354 73.0434 156.337 72.7603C156.33 72.6523 156.285 72.5536 156.233 72.46C156.845 72.3904 157.457 72.3551 158.071 72.3202Z" fill="white"/>
<path d="M157.582 67.4931C158.788 67.43 161.777 67.2295 162.691 67.9926C162.97 68.2249 163.111 68.5529 163.136 68.9108C163.176 69.4984 162.951 70.4466 162.571 70.8982C162.251 70.9942 161.86 70.9689 161.526 70.9807C160.133 71.2206 157.68 71.0506 156.204 71.0268C156.228 70.9851 156.251 70.9408 156.265 70.8944C156.348 70.6175 156.36 67.8943 156.265 67.6817L157.582 67.4931Z" fill="white"/>
<path d="M54.9572 66.2635C57.9776 66.1924 61.0634 66.129 64.0797 66.2999C64.2274 68.5503 64.2373 70.9496 64.0873 73.198C62.9468 73.3733 61.8057 73.3449 60.6553 73.3387C59.18 73.3281 57.7048 73.3293 56.2313 73.4144C56.1814 74.0405 56.2959 75.962 56.1224 76.4078C56.0642 76.5572 55.9776 76.6263 55.8334 76.687C55.6079 76.7819 55.2024 76.791 54.9719 76.7029C54.6327 76.1752 54.7103 67.4827 54.9572 66.2635Z" fill="#FC0502"/>
<path d="M57.9252 67.4885C59.1409 67.4838 60.385 67.4227 61.5977 67.487C61.9196 67.504 62.3086 67.5889 62.5248 67.8502C63.0524 68.4892 62.8155 71.1355 62.733 72.0008C62.2611 72.0686 61.7842 72.0725 61.3085 72.0866C59.5998 72.0857 57.8862 72.1109 56.1784 72.0487C56.1064 70.5884 56.0559 69.0236 56.2685 67.5751L57.9252 67.4885Z" fill="white"/>
<path d="M174.033 66.1765C174.997 66.1859 175.947 66.1695 176.884 66.4302C176.894 66.4402 176.903 66.4496 176.912 66.4599C177.448 67.0794 177.215 74.2718 177.117 75.5635C177.092 75.8962 177.08 76.4268 176.795 76.6421C176.619 76.7757 176.398 76.7812 176.188 76.763C175.255 76.1852 176.218 74.3863 175.695 73.5283C175.686 73.5145 175.677 73.5016 175.668 73.4881C174.201 73.2115 172.506 73.3498 171.011 73.3639L169.167 73.4696C169.434 73.9353 169.214 75.6651 169.083 76.2031C169.027 76.4333 168.903 76.6112 168.693 76.7225C168.5 76.8256 168.254 76.7995 168.055 76.734C167.932 76.5487 167.931 76.3235 167.927 76.1065C167.911 75.3183 167.992 74.5214 167.996 73.7309C168.008 71.4262 167.897 69.3504 169.606 67.5684C170.895 66.2244 172.285 66.2065 174.033 66.1765Z" fill="#FC0502"/>
<path d="M172.007 67.5807C173.056 67.4324 174.6 67.3892 175.592 67.8252C175.767 68.0114 175.829 68.2425 175.875 68.4868C176.025 69.2899 176.194 71.3172 175.722 71.9984C174.825 72.041 173.915 72.0225 173.016 72.0337C171.723 72.0707 170.411 72.0704 169.12 72.0017C169.406 71.4901 169.179 70.6609 169.423 70.0431C169.873 68.9102 170.917 68.0516 172.007 67.5807Z" fill="white"/>
<path d="M96.3711 66.1765L98.3655 66.2103C98.5243 66.4223 98.5413 66.7004 98.5687 66.9549C98.6937 68.1219 98.9659 76.2633 98.4638 76.8273C98.3819 76.9195 98.2829 76.9008 98.1664 76.9122C97.2399 76.4327 97.7664 74.2718 97.2605 73.4863C97.2517 73.4725 97.2414 73.4593 97.2317 73.4458L91.674 73.4329L90.7059 73.5192C90.7261 73.5689 90.744 73.6195 90.7596 73.671C90.8812 74.0607 90.9355 76.1038 90.7535 76.4289C90.6754 76.5681 90.5432 76.6741 90.3864 76.7143C90.1862 76.7657 89.9612 76.7986 89.7742 76.6932C89.3511 76.0513 89.4118 73.4787 89.3992 72.5978C89.3707 70.6107 89.6773 69.25 91.1 67.7933C92.7044 66.1504 94.2049 66.1959 96.3711 66.1765Z" fill="#FC0502"/>
<path d="M94.0118 67.5806C95.0213 67.4511 96.2062 67.4764 97.2083 67.6522C97.371 67.8369 97.3995 68.0774 97.4324 68.3129C97.5507 69.1677 97.7742 71.3671 97.2383 72.0718C96.1574 72.196 94.9614 72.095 93.8679 72.0938C92.7354 72.0944 91.6257 72.0668 90.502 71.9162C90.7918 71.5338 90.7891 70.8015 91.0138 70.3282C91.6248 69.04 92.6725 68.0607 94.0118 67.5806Z" fill="white"/>
<path d="M23.3291 65.5905C23.3657 65.5893 23.4023 65.5881 23.4389 65.5884C23.7253 65.5908 24.049 65.6122 24.2573 65.8274C24.4458 66.7741 24.3078 67.9425 24.3231 68.9209C24.3592 71.2318 24.5612 74.276 24.3649 76.4977C24.2478 76.6418 24.2099 76.6829 24.031 76.7384C23.7301 76.8315 23.3698 76.8394 23.0946 76.6929C22.634 75.921 23.1241 68.9512 23.282 67.6973C22.1551 69.2307 20.9172 70.6778 19.7735 72.1985C18.7298 73.5862 17.5036 75.7744 16.1759 76.8456C16.1356 76.8599 16.0952 76.8738 16.0546 76.8873C15.7598 76.9854 15.4552 77.0744 15.1617 76.9287C14.7686 76.3423 14.908 67.5831 15.0355 66.2776C15.0547 66.0814 15.0423 66.0582 15.1964 65.9314C15.6095 65.8404 16.0117 65.9229 16.4233 65.9837C16.4725 67.6427 16.0092 73.7469 16.4376 74.7405C16.5915 74.7194 16.6805 74.5743 16.7708 74.451C17.4415 73.5363 18.0143 72.5271 18.6583 71.5898C19.5967 70.2241 20.6087 68.9259 21.6087 67.606C22.0979 66.9606 22.6275 66.07 23.3016 65.609L23.3291 65.5905Z" fill="#FC0502"/>
<path d="M122.782 66.1766C123.187 66.164 123.597 66.1977 124.002 66.218C124.045 66.2984 124.081 66.3736 124.104 66.4623C124.204 66.8332 124.104 67.1291 123.923 67.453C121.502 67.6586 119.072 67.3232 116.657 67.7299C116.665 67.7475 116.673 67.7646 116.681 67.7825C116.763 67.9854 116.629 70.7403 116.553 70.9232C119.045 71.0933 121.536 70.9526 124.026 71.0701C124.049 71.112 124.052 71.1132 124.068 71.167C124.175 71.5187 124.098 71.9577 123.918 72.2704C121.5 72.4537 119.026 72.2428 116.593 72.3624C116.798 72.752 116.698 75.2829 116.581 75.7439C117.007 75.8487 117.432 75.9245 117.865 75.9926C119.884 76.1902 122.025 76.0551 124.056 76.0493C124.098 76.1186 124.117 76.1673 124.134 76.2484C124.202 76.5734 124.192 76.8538 124.013 77.1337C122.929 77.5583 116.64 77.3072 115.247 77.1595C115.281 77.0955 115.313 77.0283 115.334 76.9587C115.368 76.8465 115.421 67.1535 115.355 66.5307C115.343 66.4229 115.301 66.3272 115.249 66.2327C117.76 66.2401 120.271 66.2214 122.782 66.1766Z" fill="#FC0502"/>
<path d="M44.2084 66.1765C46.2739 66.0519 48.4168 66.1019 50.482 66.2358C50.5058 66.6648 50.4717 67.0961 50.4503 67.5248C48.1021 67.4447 45.7157 67.3369 43.3721 67.5457C43.2362 68.7149 43.2562 69.8742 43.3034 71.047C45.6569 71.1865 48.0974 71.0479 50.4582 71.0444C50.4676 71.5033 50.4297 71.9582 50.3963 72.4157C48.0659 72.3217 45.6936 72.1846 43.3666 72.3969C43.2471 73.3518 43.0301 74.9644 43.3451 75.8656C43.9732 76.3686 49.3847 76.0183 50.4588 75.9875C50.4603 76.4241 50.4115 76.8549 50.3675 77.2889C48.3249 77.4598 43.9092 77.4783 41.9592 77.1802C41.7792 75.7537 41.8667 74.2371 41.8628 72.7965C41.8573 70.6541 41.6732 68.34 42.0619 66.2328C42.7772 66.2217 43.4931 66.1955 44.2084 66.1765Z" fill="#FC0502"/>
<path d="M128.362 66.2643C129.637 66.1994 130.941 66.2554 132.219 66.2469C134.256 66.2337 136.301 66.1803 138.337 66.2449C138.594 66.7338 138.586 67.879 138.449 68.4178C138.39 68.646 138.338 68.7258 138.138 68.8439C137.501 68.7217 137.666 68.1441 137.255 67.7997C137.244 67.7903 137.232 67.7818 137.22 67.773C135.641 67.2788 131.297 67.5389 129.543 67.7712C129.549 67.783 129.555 67.7941 129.561 67.8059C129.593 67.8746 129.615 75.5617 129.549 75.7447C130.039 75.8586 130.529 75.9355 131.028 76.0057C132.65 76.1202 135.022 76.2024 136.627 75.9288C137.45 75.7884 137.336 75.4211 137.757 74.8212C138.022 74.699 138.094 74.7125 138.375 74.7372C138.459 74.8335 138.501 74.8664 138.527 74.9965C138.641 75.5679 138.612 76.6655 138.291 77.1579C137.265 77.3955 135.964 77.2915 134.908 77.2971C132.642 77.3097 130.385 77.352 128.126 77.1524C128.133 77.1377 128.139 77.1227 128.146 77.1077C128.473 76.425 128.272 68.002 128.362 66.2643Z" fill="#FC0502"/>
<path d="M84.5874 65.988C84.9703 65.9651 85.3447 65.9868 85.7267 66.0106C85.8659 66.4153 85.8442 66.8548 85.8218 67.2762C85.6882 69.7862 83.7649 70.3256 83.6128 71.516C83.5036 72.3691 84.7665 73.1754 85.2205 73.8023C85.4469 74.1147 85.5796 74.3946 85.5226 74.776C85.6031 74.9146 85.6545 75.057 85.6827 75.2144C85.771 75.7062 85.7452 76.4415 85.4513 76.8532C85.3914 76.8743 85.305 76.9254 85.246 76.9005C84.765 76.6961 84.3951 75.4085 84.1913 74.9396C83.7229 73.8613 82.7968 72.4718 81.6592 72.0237C80.2583 71.8226 78.5749 71.948 77.1542 71.9911C76.8412 73.5389 77.2382 75.2097 76.9164 76.7375C76.8033 76.7648 76.685 76.7909 76.5681 76.7918C76.4052 76.793 76.0328 76.7998 75.9213 76.6791C75.4033 76.1188 75.5903 67.2662 75.6664 65.978L77.0823 66.0453C77.04 67.5863 76.8747 69.1358 77.0679 70.6718C78.4909 70.7725 80.4116 70.863 81.8175 70.6204C81.841 70.6116 81.8645 70.6031 81.8877 70.5937C82.8391 70.2061 83.8771 69.0339 84.2817 68.0987C84.4975 67.5995 84.7897 66.4998 84.5874 65.988Z" fill="#FC0502"/>
<path d="M7.24504 65.1209C8.30598 65.105 9.37315 65.1479 10.4343 65.1673C10.6863 67.9213 10.5143 70.8503 10.5004 73.6205C10.4965 74.3796 10.6389 75.2899 10.5328 76.0219C10.4986 76.2577 10.3944 76.4524 10.1961 76.5924C9.97026 76.7522 9.70957 76.8015 9.44297 76.7478C9.21673 76.5601 9.12784 76.4268 9.08309 76.13C8.98613 75.4866 9.11472 74.7657 9.11994 74.1112C9.13956 71.662 9.35365 69.0624 9.09501 66.6325C8.18004 66.4546 6.67987 66.0626 5.8285 66.5532C5.39209 66.8049 5.32385 67.2844 5.1926 67.7343C4.46314 70.3379 3.46286 73.3612 2.10765 75.6898C1.6136 76.539 1.17496 76.6432 0.272461 76.8849C0.510705 75.671 1.27558 74.6806 1.78861 73.5706C3.02719 70.8909 3.8798 68.1445 4.22976 65.2131C5.22164 65.1247 6.24808 65.1473 7.24504 65.1209Z" fill="#FC0502"/>
<path d="M110.39 66.9663C110.753 66.922 111.143 66.8962 111.476 67.0662C111.515 67.1319 111.541 67.1783 111.562 67.2526C111.68 67.6802 111.661 74.9442 111.6 75.8389C111.58 76.1299 111.547 76.5055 111.394 76.7556C111.319 76.8778 111.269 76.8634 111.137 76.8951C109.787 76.3974 110.86 73.5071 110.175 72.4911C110.165 72.4759 110.154 72.4612 110.144 72.4462C108.513 72.1523 105.708 72.3969 103.871 72.2862L102.848 72.1561C102.857 72.0977 102.857 72.0583 102.838 72.0016C102.489 70.9736 102.085 68.4927 102.433 67.4538C102.494 67.2705 102.606 67.1143 102.784 67.0348C103.003 66.937 103.446 66.986 103.664 67.0809C103.719 67.4229 103.781 70.3012 103.736 70.6911C105.808 71.1889 108.041 71.0491 110.155 70.9586C110.597 70.3564 110.332 67.8249 110.39 66.9663Z" fill="#FC0502"/>
<path d="M150.145 66.1765C150.587 66.1615 151.02 66.1903 151.461 66.2211C151.512 66.2943 151.543 66.3559 151.572 66.4411C151.689 66.7929 151.636 67.0991 151.474 67.423C150.135 67.5519 148.777 67.5208 147.432 67.5634C147.469 67.6318 147.509 67.7093 147.524 67.7859C147.665 68.4672 147.499 71.1079 147.493 72.0011C147.482 73.669 147.591 75.3724 147.512 77.0349C147.504 77.192 147.463 77.3063 147.378 77.4372C146.94 77.5206 146.477 77.4986 146.032 77.503C146.061 77.4469 146.09 77.3853 146.103 77.3233C146.207 76.8262 146.215 75.1081 145.954 74.6905C146.006 74.6086 146.052 74.5211 146.074 74.426C146.234 73.7665 146.17 68.9062 146.065 68.0875C146.043 67.9122 145.976 67.7624 145.884 67.6139C145.039 67.544 142.576 67.7695 142.003 67.3211C141.85 67.2013 141.791 67.0289 141.779 66.8369C141.764 66.6055 141.862 66.501 141.996 66.3321C142.227 66.2147 142.435 66.1604 142.695 66.1498C143.435 66.1195 144.2 66.2358 144.945 66.2429C146.676 66.2596 148.413 66.2076 150.145 66.1765Z" fill="#FC0502"/>
</g>
<defs>
<clipPath id="clip0_1_491">
<rect width="180" height="79.8695" fill="white" transform="translate(0 0.130615)"/>
</clipPath>
</defs>
</svg>
