<svg width="40" height="40" viewBox="0 0 40 40" fill="none" xmlns="http://www.w3.org/2000/svg">
<path d="M4.99998 0H26.2412L37.4999 11.215V37.5C37.4999 38.8812 36.38 40 34.9999 40H4.99998C3.61994 40 2.5 38.8812 2.5 37.5V2.49998C2.5 1.11877 3.62007 0 4.99998 0Z" fill="#E2574C"/>
<path d="M37.4637 11.2499H28.75C27.3699 11.2499 26.25 10.13 26.25 8.74992V0.0249023L37.4637 11.2499Z" fill="#B53629"/>
<path d="M28.1227 18.9537C28.5415 18.9537 28.7465 18.5887 28.7465 18.2349C28.7465 17.8686 28.5327 17.5149 28.1227 17.5149H25.7377C25.2714 17.5149 25.0115 17.9011 25.0115 18.3274V24.1886C25.0115 24.7111 25.3089 25.0011 25.7114 25.0011C26.1115 25.0011 26.4103 24.7111 26.4103 24.1886V22.5799H27.8528C28.3003 22.5799 28.524 22.2136 28.524 21.8499C28.524 21.4937 28.3003 21.1399 27.8528 21.1399H26.4103V18.9537H28.1227ZM20.0614 17.5149H18.3164C17.8426 17.5149 17.5064 17.8399 17.5064 18.3223V24.1937C17.5064 24.7924 17.9901 24.9799 18.3363 24.9799H20.1676C22.3351 24.9799 23.7663 23.5537 23.7663 21.3524C23.7652 19.0249 22.4177 17.5149 20.0614 17.5149ZM20.1452 23.5325H19.0814V18.9624H20.0402C21.4915 18.9624 22.1227 19.9362 22.1227 21.2799C22.1227 22.5375 21.5027 23.5325 20.1452 23.5325ZM13.7527 17.5149H12.024C11.5352 17.5149 11.2627 17.8373 11.2627 18.3274V24.1886C11.2627 24.7111 11.5752 25.0011 11.9951 25.0011C12.4151 25.0011 12.7276 24.7111 12.7276 24.1886V22.4773H13.8113C15.1488 22.4773 16.2526 21.5298 16.2526 20.0061C16.2527 18.5149 15.1877 17.5149 13.7527 17.5149ZM13.724 21.1025H12.7277V18.8912H13.724C14.339 18.8912 14.7302 19.3712 14.7302 19.9974C14.729 20.6225 14.339 21.1025 13.724 21.1025Z" fill="white"/>
</svg>
