<svg width="890" height="30" viewBox="0 0 890 30" fill="none" xmlns="http://www.w3.org/2000/svg">
<rect width="890" height="30" rx="6" fill="#F2F2F2"/>
<rect x="2.8584" y="3" width="147.698" height="24" rx="6" fill="#2AB546"/>
<path d="M403.077 11.32H397.687V20H396.497V10.2H404.267V20H403.077V11.32ZM407.485 23.08H406.365V13.56H407.485V23.08ZM412.875 16.78C412.875 17.4707 412.73 18.068 412.441 18.572C412.151 19.076 411.764 19.4633 411.279 19.734C410.803 20.0047 410.271 20.14 409.683 20.14C409.151 20.14 408.679 20.0047 408.269 19.734C407.867 19.4633 407.55 19.076 407.317 18.572C407.093 18.068 406.981 17.4707 406.981 16.78C406.981 16.08 407.093 15.4827 407.317 14.988C407.55 14.484 407.867 14.0967 408.269 13.826C408.679 13.5553 409.151 13.42 409.683 13.42C410.271 13.42 410.803 13.5553 411.279 13.826C411.764 14.0967 412.151 14.484 412.441 14.988C412.73 15.4827 412.875 16.08 412.875 16.78ZM411.741 16.78C411.741 16.2853 411.638 15.8653 411.433 15.52C411.237 15.1747 410.971 14.9133 410.635 14.736C410.308 14.5587 409.944 14.47 409.543 14.47C409.216 14.47 408.894 14.5587 408.577 14.736C408.259 14.9133 407.998 15.1747 407.793 15.52C407.587 15.8653 407.485 16.2853 407.485 16.78C407.485 17.2747 407.587 17.6947 407.793 18.04C407.998 18.3853 408.259 18.6467 408.577 18.824C408.894 19.0013 409.216 19.09 409.543 19.09C409.944 19.09 410.308 19.0013 410.635 18.824C410.971 18.6467 411.237 18.3853 411.433 18.04C411.638 17.6947 411.741 17.2747 411.741 16.78ZM413.859 16.78C413.859 16.1267 414.004 15.548 414.293 15.044C414.592 14.54 414.993 14.1433 415.497 13.854C416.001 13.5647 416.566 13.42 417.191 13.42C417.826 13.42 418.39 13.5647 418.885 13.854C419.389 14.1433 419.786 14.54 420.075 15.044C420.374 15.548 420.523 16.1267 420.523 16.78C420.523 17.424 420.374 18.0027 420.075 18.516C419.786 19.02 419.389 19.4167 418.885 19.706C418.39 19.9953 417.826 20.14 417.191 20.14C416.566 20.14 416.001 19.9953 415.497 19.706C414.993 19.4167 414.592 19.02 414.293 18.516C414.004 18.0027 413.859 17.424 413.859 16.78ZM414.993 16.78C414.993 17.228 415.086 17.6247 415.273 17.97C415.469 18.3153 415.73 18.5907 416.057 18.796C416.393 18.992 416.771 19.09 417.191 19.09C417.611 19.09 417.984 18.992 418.311 18.796C418.647 18.5907 418.908 18.3153 419.095 17.97C419.291 17.6247 419.389 17.228 419.389 16.78C419.389 16.332 419.291 15.9353 419.095 15.59C418.908 15.2353 418.647 14.96 418.311 14.764C417.984 14.568 417.611 14.47 417.191 14.47C416.771 14.47 416.393 14.568 416.057 14.764C415.73 14.96 415.469 15.2353 415.273 15.59C415.086 15.9353 414.993 16.332 414.993 16.78ZM427.452 14.68L422.132 20.49L422.202 18.88L427.522 13.07L427.452 14.68ZM423.252 13.56V18.95L422.132 20.49V13.56H423.252ZM427.522 13.07V20H426.402V14.61L427.522 13.07ZM422.65 10.27H423.644C423.644 10.3913 423.676 10.536 423.742 10.704C423.807 10.8627 423.928 11.0073 424.106 11.138C424.283 11.2593 424.535 11.32 424.862 11.32C425.188 11.32 425.44 11.2593 425.618 11.138C425.795 11.0073 425.916 10.8627 425.982 10.704C426.047 10.536 426.08 10.3913 426.08 10.27H427.074C427.074 10.5873 426.99 10.9 426.822 11.208C426.663 11.5067 426.42 11.754 426.094 11.95C425.767 12.1367 425.356 12.23 424.862 12.23C424.376 12.23 423.966 12.1367 423.63 11.95C423.303 11.754 423.056 11.5067 422.888 11.208C422.729 10.9 422.65 10.5873 422.65 10.27ZM433.191 15.492L431.301 19.58H430.041L433.191 13.07L436.341 19.58H435.081L433.191 15.492ZM436.061 20H430.391V21.26H429.201V18.95H437.181V21.26H436.061V20ZM439.018 17.06V16.108H443.316C443.279 15.772 443.186 15.478 443.036 15.226C442.896 14.9647 442.696 14.764 442.434 14.624C442.182 14.4747 441.87 14.4 441.496 14.4C441.123 14.4 440.782 14.4793 440.474 14.638C440.166 14.7967 439.919 15.0253 439.732 15.324C439.555 15.6133 439.466 15.9587 439.466 16.36L439.438 16.78C439.438 17.2747 439.522 17.6947 439.69 18.04C439.858 18.3853 440.096 18.6467 440.404 18.824C440.712 19.0013 441.076 19.09 441.496 19.09C441.814 19.09 442.094 19.0433 442.336 18.95C442.588 18.8473 442.812 18.712 443.008 18.544C443.204 18.3667 443.372 18.1613 443.512 17.928L444.422 18.502C444.208 18.8287 443.97 19.118 443.708 19.37C443.447 19.6127 443.13 19.804 442.756 19.944C442.383 20.0747 441.916 20.14 441.356 20.14C440.778 20.14 440.255 19.9953 439.788 19.706C439.331 19.4167 438.967 19.02 438.696 18.516C438.435 18.0027 438.304 17.424 438.304 16.78C438.304 16.6587 438.309 16.542 438.318 16.43C438.328 16.318 438.342 16.206 438.36 16.094C438.454 15.562 438.64 15.0953 438.92 14.694C439.2 14.2927 439.56 13.98 439.998 13.756C440.446 13.532 440.946 13.42 441.496 13.42C442.103 13.42 442.635 13.5553 443.092 13.826C443.55 14.0967 443.904 14.4793 444.156 14.974C444.408 15.4593 444.534 16.0427 444.534 16.724C444.534 16.78 444.534 16.836 444.534 16.892C444.534 16.948 444.53 17.004 444.52 17.06H439.018ZM446.728 17.13V16.08H451.488V17.13H446.728ZM450.76 13.56H451.88V20H450.76V13.56ZM446.07 13.56H447.19V20H446.07V13.56ZM453.426 16.78C453.426 16.1267 453.57 15.548 453.86 15.044C454.158 14.54 454.56 14.1433 455.064 13.854C455.568 13.5647 456.132 13.42 456.758 13.42C457.392 13.42 457.957 13.5647 458.452 13.854C458.956 14.1433 459.352 14.54 459.642 15.044C459.94 15.548 460.09 16.1267 460.09 16.78C460.09 17.424 459.94 18.0027 459.642 18.516C459.352 19.02 458.956 19.4167 458.452 19.706C457.957 19.9953 457.392 20.14 456.758 20.14C456.132 20.14 455.568 19.9953 455.064 19.706C454.56 19.4167 454.158 19.02 453.86 18.516C453.57 18.0027 453.426 17.424 453.426 16.78ZM454.56 16.78C454.56 17.228 454.653 17.6247 454.84 17.97C455.036 18.3153 455.297 18.5907 455.624 18.796C455.96 18.992 456.338 19.09 456.758 19.09C457.178 19.09 457.551 18.992 457.878 18.796C458.214 18.5907 458.475 18.3153 458.662 17.97C458.858 17.6247 458.956 17.228 458.956 16.78C458.956 16.332 458.858 15.9353 458.662 15.59C458.475 15.2353 458.214 14.96 457.878 14.764C457.551 14.568 457.178 14.47 456.758 14.47C456.338 14.47 455.96 14.568 455.624 14.764C455.297 14.96 455.036 15.2353 454.84 15.59C454.653 15.9353 454.56 16.332 454.56 16.78ZM468.527 15.226V14.26C468.817 14.26 469.073 14.2227 469.297 14.148C469.531 14.0733 469.727 13.9707 469.885 13.84C470.044 13.7 470.165 13.546 470.249 13.378C470.343 13.2007 470.389 13.0187 470.389 12.832C470.389 12.5987 470.343 12.3933 470.249 12.216C470.156 12.0387 470.021 11.9033 469.843 11.81C469.666 11.7167 469.437 11.67 469.157 11.67C468.765 11.67 468.434 11.7913 468.163 12.034C467.902 12.2673 467.771 12.566 467.771 12.93H465.909C465.909 12.37 466.045 11.8753 466.315 11.446C466.595 11.0073 466.978 10.662 467.463 10.41C467.949 10.158 468.513 10.032 469.157 10.032C469.839 10.032 470.417 10.1533 470.893 10.396C471.379 10.6387 471.747 10.9607 471.999 11.362C472.251 11.7633 472.377 12.2113 472.377 12.706C472.377 13.238 472.209 13.6953 471.873 14.078C471.537 14.4513 471.08 14.736 470.501 14.932C469.923 15.128 469.265 15.226 468.527 15.226ZM469.073 20.196C468.513 20.196 468.014 20.112 467.575 19.944C467.137 19.776 466.763 19.5473 466.455 19.258C466.147 18.9593 465.909 18.6233 465.741 18.25C465.573 17.8673 465.489 17.466 465.489 17.046H467.477C467.477 17.3633 467.552 17.634 467.701 17.858C467.851 18.082 468.051 18.2547 468.303 18.376C468.555 18.488 468.831 18.544 469.129 18.544C469.437 18.544 469.703 18.4927 469.927 18.39C470.161 18.278 470.343 18.1193 470.473 17.914C470.604 17.7087 470.669 17.452 470.669 17.144C470.669 16.92 470.623 16.7147 470.529 16.528C470.436 16.332 470.296 16.1687 470.109 16.038C469.932 15.9073 469.708 15.8093 469.437 15.744C469.176 15.6693 468.873 15.632 468.527 15.632V14.568C469.125 14.568 469.671 14.6193 470.165 14.722C470.669 14.8247 471.108 14.9927 471.481 15.226C471.855 15.45 472.144 15.7393 472.349 16.094C472.555 16.4393 472.657 16.8593 472.657 17.354C472.657 17.914 472.508 18.4087 472.209 18.838C471.92 19.2673 471.505 19.6033 470.963 19.846C470.431 20.0793 469.801 20.196 469.073 20.196ZM476.881 15.226V14.26C477.17 14.26 477.427 14.2227 477.651 14.148C477.884 14.0733 478.08 13.9707 478.239 13.84C478.398 13.7 478.519 13.546 478.603 13.378C478.696 13.2007 478.743 13.0187 478.743 12.832C478.743 12.5987 478.696 12.3933 478.603 12.216C478.51 12.0387 478.374 11.9033 478.197 11.81C478.02 11.7167 477.791 11.67 477.511 11.67C477.119 11.67 476.788 11.7913 476.517 12.034C476.256 12.2673 476.125 12.566 476.125 12.93H474.263C474.263 12.37 474.398 11.8753 474.669 11.446C474.949 11.0073 475.332 10.662 475.817 10.41C476.302 10.158 476.867 10.032 477.511 10.032C478.192 10.032 478.771 10.1533 479.247 10.396C479.732 10.6387 480.101 10.9607 480.353 11.362C480.605 11.7633 480.731 12.2113 480.731 12.706C480.731 13.238 480.563 13.6953 480.227 14.078C479.891 14.4513 479.434 14.736 478.855 14.932C478.276 15.128 477.618 15.226 476.881 15.226ZM477.427 20.196C476.867 20.196 476.368 20.112 475.929 19.944C475.49 19.776 475.117 19.5473 474.809 19.258C474.501 18.9593 474.263 18.6233 474.095 18.25C473.927 17.8673 473.843 17.466 473.843 17.046H475.831C475.831 17.3633 475.906 17.634 476.055 17.858C476.204 18.082 476.405 18.2547 476.657 18.376C476.909 18.488 477.184 18.544 477.483 18.544C477.791 18.544 478.057 18.4927 478.281 18.39C478.514 18.278 478.696 18.1193 478.827 17.914C478.958 17.7087 479.023 17.452 479.023 17.144C479.023 16.92 478.976 16.7147 478.883 16.528C478.79 16.332 478.65 16.1687 478.463 16.038C478.286 15.9073 478.062 15.8093 477.791 15.744C477.53 15.6693 477.226 15.632 476.881 15.632V14.568C477.478 14.568 478.024 14.6193 478.519 14.722C479.023 14.8247 479.462 14.9927 479.835 15.226C480.208 15.45 480.498 15.7393 480.703 16.094C480.908 16.4393 481.011 16.8593 481.011 17.354C481.011 17.914 480.862 18.4087 480.563 18.838C480.274 19.2673 479.858 19.6033 479.317 19.846C478.785 20.0793 478.155 20.196 477.427 20.196ZM481.846 12.454C481.846 11.9873 481.954 11.5673 482.168 11.194C482.392 10.8207 482.696 10.5267 483.078 10.312C483.461 10.088 483.89 9.976 484.366 9.976C484.852 9.976 485.281 10.088 485.654 10.312C486.037 10.5267 486.336 10.8207 486.55 11.194C486.765 11.5673 486.872 11.9873 486.872 12.454C486.872 12.902 486.765 13.3173 486.55 13.7C486.336 14.0733 486.037 14.372 485.654 14.596C485.281 14.82 484.852 14.932 484.366 14.932C483.89 14.932 483.461 14.82 483.078 14.596C482.696 14.372 482.392 14.0733 482.168 13.7C481.954 13.3173 481.846 12.902 481.846 12.454ZM483.358 12.454C483.358 12.6407 483.4 12.818 483.484 12.986C483.568 13.1447 483.685 13.2707 483.834 13.364C483.984 13.4573 484.161 13.504 484.366 13.504C484.572 13.504 484.744 13.4573 484.884 13.364C485.034 13.2707 485.15 13.1447 485.234 12.986C485.318 12.818 485.36 12.6407 485.36 12.454C485.36 12.258 485.318 12.0807 485.234 11.922C485.15 11.7633 485.034 11.6373 484.884 11.544C484.744 11.4413 484.572 11.39 484.366 11.39C484.161 11.39 483.984 11.4413 483.834 11.544C483.685 11.6373 483.568 11.7633 483.484 11.922C483.4 12.0807 483.358 12.258 483.358 12.454ZM488.216 17.746C488.216 17.2887 488.324 16.8733 488.538 16.5C488.762 16.1173 489.066 15.8187 489.448 15.604C489.831 15.38 490.26 15.268 490.736 15.268C491.222 15.268 491.651 15.38 492.024 15.604C492.407 15.8187 492.706 16.1173 492.92 16.5C493.135 16.8733 493.242 17.2887 493.242 17.746C493.242 18.2033 493.135 18.6187 492.92 18.992C492.706 19.3653 492.407 19.664 492.024 19.888C491.651 20.112 491.222 20.224 490.736 20.224C490.26 20.224 489.831 20.112 489.448 19.888C489.066 19.664 488.762 19.3653 488.538 18.992C488.324 18.6187 488.216 18.2033 488.216 17.746ZM489.728 17.746C489.728 17.9327 489.77 18.11 489.854 18.278C489.938 18.4367 490.055 18.5627 490.204 18.656C490.354 18.7493 490.531 18.796 490.736 18.796C490.942 18.796 491.114 18.7493 491.254 18.656C491.404 18.5627 491.52 18.4367 491.604 18.278C491.688 18.11 491.73 17.9327 491.73 17.746C491.73 17.55 491.688 17.3727 491.604 17.214C491.52 17.0553 491.404 16.9293 491.254 16.836C491.114 16.7427 490.942 16.696 490.736 16.696C490.531 16.696 490.354 16.7427 490.204 16.836C490.055 16.9293 489.938 17.0553 489.854 17.214C489.77 17.3727 489.728 17.55 489.728 17.746ZM490.204 10.2H492.038L484.898 20H483.064L490.204 10.2Z" fill="#232324"/>
</svg>
