<svg width="36" height="36" viewBox="0 0 36 36" fill="none" xmlns="http://www.w3.org/2000/svg">
<path d="M36 18C36 8.05888 27.9411 0 18 0C8.05888 0 0 8.05888 0 18C0 27.9411 8.05888 36 18 36C27.9411 36 36 27.9411 36 18Z" fill="#4C9AE8"/>
<path d="M14.1648 14.9819C15.071 14.9819 15.8056 14.2472 15.8056 13.341C15.8056 12.4348 15.071 11.7002 14.1648 11.7002C13.2586 11.7002 12.5239 12.4348 12.5239 13.341C12.5239 14.2472 13.2586 14.9819 14.1648 14.9819Z" fill="white"/>
<path d="M21.822 14.9819C22.7282 14.9819 23.4628 14.2472 23.4628 13.341C23.4628 12.4348 22.7282 11.7002 21.822 11.7002C20.9158 11.7002 20.1812 12.4348 20.1812 13.341C20.1812 14.2472 20.9158 14.9819 21.822 14.9819Z" fill="white"/>
<path d="M9.0866 24.1737C8.91037 24.1735 8.73741 24.1261 8.58566 24.0365C8.4339 23.9469 8.30889 23.8184 8.22357 23.6642C8.13825 23.51 8.09574 23.3358 8.10045 23.1596C8.10516 22.9834 8.15691 22.8117 8.25034 22.6623L10.7297 18.6971C10.869 18.4759 11.0903 18.319 11.3451 18.2607C11.5999 18.2024 11.8675 18.2475 12.0891 18.3862C12.3107 18.5248 12.4683 18.7456 12.5273 19.0003C12.5864 19.2549 12.5421 19.5225 12.4041 19.7446L9.92478 23.7098C9.83601 23.8519 9.71246 23.9692 9.5658 24.0503C9.41915 24.1315 9.25422 24.174 9.0866 24.1737Z" fill="white"/>
<path d="M17.9845 24.8574C16.4822 24.8616 14.999 24.5211 13.6489 23.8621C12.2989 23.2031 11.118 22.2432 10.1973 21.0561L11.754 19.8398C12.4927 20.7869 13.4376 21.5532 14.5168 22.0803C15.596 22.6075 16.7812 22.8816 17.9823 22.882C19.1834 22.8824 20.3688 22.6089 21.4483 22.0825C22.5279 21.556 23.4732 20.7903 24.2125 19.8437L25.7683 21.06C24.8475 22.2458 23.667 23.2048 22.3176 23.8631C20.9682 24.5214 19.4859 24.8615 17.9845 24.8574Z" fill="white"/>
<path d="M26.8915 24.1737C26.7239 24.174 26.559 24.1315 26.4123 24.0504C26.2657 23.9692 26.1421 23.852 26.0534 23.7098L23.574 19.7446C23.4361 19.5225 23.3918 19.2549 23.4508 19.0003C23.5099 18.7456 23.6675 18.5248 23.8891 18.3862C24.1107 18.2475 24.3782 18.2024 24.633 18.2607C24.8878 18.319 25.1091 18.4759 25.2485 18.6971L27.7278 22.6623C27.8213 22.8117 27.873 22.9834 27.8777 23.1596C27.8824 23.3358 27.8399 23.51 27.7546 23.6642C27.6693 23.8184 27.5443 23.9469 27.3925 24.0365C27.2408 24.1261 27.0678 24.1735 26.8916 24.1737H26.8915Z" fill="white"/>
</svg>
