<svg width="65" height="65" viewBox="0 0 65 65" fill="none" xmlns="http://www.w3.org/2000/svg">
<rect width="65" height="65" rx="16" fill="#F1F3F8"/>
<g clip-path="url(#clip0_1_681)">
<path d="M35.5 18.875L42.25 25.625H35.5V18.875ZM33.8125 25.625C33.8125 26.5742 34.5508 27.3125 35.5 27.3125H42.25V43.3438C42.25 44.7676 41.0898 45.875 39.7188 45.875H24.5312C23.1074 45.875 22 44.7676 22 43.3438V21.4062C22 20.0352 23.1074 18.875 24.5312 18.875H33.8125V25.625ZM25.375 22.6719V23.5156C25.375 23.7793 25.5332 23.9375 25.7969 23.9375H30.0156C30.2266 23.9375 30.4375 23.7793 30.4375 23.5156V22.6719C30.4375 22.4609 30.2266 22.25 30.0156 22.25H25.7969C25.5332 22.25 25.375 22.4609 25.375 22.6719ZM25.375 26.0469V26.8906C25.375 27.1543 25.5332 27.3125 25.7969 27.3125H30.0156C30.2266 27.3125 30.4375 27.1543 30.4375 26.8906V26.0469C30.4375 25.8359 30.2266 25.625 30.0156 25.625H25.7969C25.5332 25.625 25.375 25.8359 25.375 26.0469ZM38.0312 39.125V39.1777H35.5C35.2891 39.1777 35.0781 39.0195 34.9727 38.8086C34.3398 37.543 32.5469 37.2266 31.4922 38.0703L30.7539 35.8555C30.5957 35.3281 30.1211 35.0117 29.5938 35.0117C29.0137 35.0117 28.5391 35.3281 28.3809 35.8555L27.4316 38.7559C27.3262 38.9668 27.1152 39.125 26.8516 39.125H26.2188C25.7441 39.125 25.375 39.5469 25.375 39.9688C25.375 40.4434 25.7441 40.8125 26.2188 40.8125H26.8516C27.8535 40.8125 28.6973 40.2324 29.0137 39.2832L29.5938 37.5957L30.4375 40.2324C30.543 40.6016 30.8594 40.8125 31.1758 40.8125H31.2812C31.5449 40.8125 31.8613 40.6543 32.0195 40.3906L32.4414 39.5469C32.5469 39.2832 32.8105 39.2305 32.9688 39.2305C33.0742 39.2305 33.3379 39.2832 33.4961 39.5996C33.8652 40.3379 34.6562 40.8125 35.5 40.8125H38.0312C38.4531 40.8125 38.875 40.4434 38.875 39.9688C38.875 39.5469 38.4531 39.125 38.0312 39.125Z" fill="url(#paint0_linear_1_681)"/>
</g>
<defs>
<linearGradient id="paint0_linear_1_681" x1="22" y1="14.2045" x2="45.2572" y2="49.9344" gradientUnits="userSpaceOnUse">
<stop stop-color="#DD0000"/>
<stop offset="1" stop-color="#DD0000" stop-opacity="0.65"/>
</linearGradient>
<clipPath id="clip0_1_681">
<rect width="21" height="28" fill="white" transform="translate(22 18.5)"/>
</clipPath>
</defs>
</svg>
