<svg width="65" height="65" viewBox="0 0 65 65" fill="none" xmlns="http://www.w3.org/2000/svg">
<rect width="65" height="65" rx="16" fill="#F1F3F8"/>
<g clip-path="url(#clip0_1_671)">
<path d="M35.5 18.875L42.25 25.625H35.5V18.875ZM33.8125 25.625C33.8125 26.5742 34.5508 27.3125 35.5 27.3125H42.25V43.3438C42.25 44.7676 41.0898 45.875 39.7188 45.875H24.5312C23.1074 45.875 22 44.7676 22 43.3438V21.4062C22 20.0352 23.1074 18.875 24.5312 18.875H33.8125V25.625ZM28.75 41.8672V38.123C28.75 37.8066 28.3809 37.4375 28.0644 37.4375H26.0078C25.6914 37.4375 25.375 37.8066 25.375 38.123V41.8672C25.375 42.1836 25.6914 42.5 26.0078 42.5H28.0644C28.3809 42.5 28.75 42.1836 28.75 41.8672ZM33.8125 41.8672V31.373C33.8125 31.0566 33.4434 30.6875 33.127 30.6875H31.0703C30.7539 30.6875 30.4375 31.0566 30.4375 31.373V41.8672C30.4375 42.1836 30.7539 42.5 31.0703 42.5H33.127C33.4434 42.5 33.8125 42.1836 33.8125 41.8672ZM36.1328 34.0625C35.8164 34.0625 35.5 34.4316 35.5 34.748V41.8672C35.5 42.1836 35.8164 42.5 36.1328 42.5H38.1895C38.5059 42.5 38.875 42.1836 38.875 41.8672V34.748C38.875 34.4316 38.5059 34.0625 38.1895 34.0625H36.1328Z" fill="url(#paint0_linear_1_671)"/>
</g>
<defs>
<linearGradient id="paint0_linear_1_671" x1="22" y1="14.2045" x2="45.2572" y2="49.9344" gradientUnits="userSpaceOnUse">
<stop stop-color="#DD0000"/>
<stop offset="1" stop-color="#DD0000" stop-opacity="0.65"/>
</linearGradient>
<clipPath id="clip0_1_671">
<rect width="21" height="28" fill="white" transform="translate(22 18.5)"/>
</clipPath>
</defs>
</svg>
