<svg width="66" height="65" viewBox="0 0 66 65" fill="none" xmlns="http://www.w3.org/2000/svg">
<rect x="0.5" width="65" height="65" rx="16" fill="#F1F3F8"/>
<path d="M45.8675 42.7889C46.6585 43.6326 46.6585 44.951 45.8675 45.7947C45.0237 46.5857 43.7054 46.5857 42.8616 45.7947L36.5862 39.4666C34.4241 40.8904 31.7874 41.6287 28.9398 41.2596C24.0882 40.574 20.1859 36.6189 19.5531 31.8201C18.6566 24.6483 24.721 18.5838 31.8929 19.4803C36.6917 20.1131 40.6468 24.0155 41.3323 28.867C41.7015 31.7146 40.9632 34.3514 39.5394 36.4607L45.8675 42.7889ZM23.6664 30.3436C23.6664 34.0877 26.6722 37.0936 30.4163 37.0936C34.1077 37.0936 37.1663 34.0877 37.1663 30.3436C37.1663 26.6522 34.1077 23.5936 30.4163 23.5936C26.6722 23.5936 23.6664 26.6522 23.6664 30.3436Z" fill="url(#paint0_linear_1_676)"/>
<defs>
<linearGradient id="paint0_linear_1_676" x1="19.5003" y1="14.7044" x2="39.9993" y2="55.1947" gradientUnits="userSpaceOnUse">
<stop stop-color="#DD0000"/>
<stop offset="1" stop-color="#DD0000" stop-opacity="0.65"/>
</linearGradient>
</defs>
</svg>
