<svg width="92" height="21" viewBox="0 0 92 21" fill="none" xmlns="http://www.w3.org/2000/svg">
<path d="M9.10362 4.43333C9.47045 3.69016 10.5302 3.69016 10.897 4.43333L12.3429 7.36246C12.4884 7.6573 12.7696 7.86176 13.095 7.90932L16.3299 8.38215C17.1498 8.50199 17.4766 9.50983 16.883 10.088L14.5438 12.3664C14.3079 12.5961 14.2002 12.9272 14.2559 13.2518L14.8078 16.4693C14.9479 17.2863 14.0903 17.9093 13.3567 17.5234L10.4658 16.0031C10.1744 15.8499 9.82626 15.8499 9.53487 16.0031L6.64396 17.5234C5.91033 17.9093 5.05278 17.2863 5.1929 16.4693L5.74474 13.2518C5.80041 12.9272 5.69274 12.5961 5.45687 12.3664L3.11767 10.088C2.52408 9.50984 2.85086 8.50199 3.67077 8.38215L6.90569 7.90932C7.23105 7.86176 7.51223 7.6573 7.65777 7.36246L9.10362 4.43333Z" fill="#D11717"/>
<path d="M27.1036 4.43333C27.4705 3.69016 28.5302 3.69016 28.897 4.43333L30.3429 7.36246C30.4884 7.6573 30.7696 7.86176 31.095 7.90932L34.3299 8.38215C35.1498 8.50199 35.4766 9.50983 34.883 10.088L32.5438 12.3664C32.3079 12.5961 32.2002 12.9272 32.2559 13.2518L32.8078 16.4693C32.9479 17.2863 32.0903 17.9093 31.3567 17.5234L28.4658 16.0031C28.1744 15.8499 27.8263 15.8499 27.5349 16.0031L24.644 17.5234C23.9103 17.9093 23.0528 17.2863 23.1929 16.4693L23.7447 13.2518C23.8004 12.9272 23.6927 12.5961 23.4569 12.3664L21.1177 10.088C20.5241 9.50984 20.8509 8.50199 21.6708 8.38215L24.9057 7.90932C25.231 7.86176 25.5122 7.6573 25.6578 7.36246L27.1036 4.43333Z" fill="#D11717"/>
<path d="M45.1036 4.43333C45.4705 3.69016 46.5302 3.69016 46.897 4.43333L48.3429 7.36246C48.4884 7.6573 48.7696 7.86176 49.095 7.90932L52.3299 8.38215C53.1498 8.50199 53.4766 9.50983 52.883 10.088L50.5438 12.3664C50.3079 12.5961 50.2002 12.9272 50.2559 13.2518L50.8078 16.4693C50.9479 17.2863 50.0903 17.9093 49.3567 17.5234L46.4658 16.0031C46.1744 15.8499 45.8263 15.8499 45.5349 16.0031L42.644 17.5234C41.9103 17.9093 41.0528 17.2863 41.1929 16.4693L41.7447 13.2518C41.8004 12.9272 41.6927 12.5961 41.4569 12.3664L39.1177 10.088C38.5241 9.50984 38.8509 8.50199 39.6708 8.38215L42.9057 7.90932C43.231 7.86176 43.5122 7.6573 43.6578 7.36246L45.1036 4.43333Z" fill="#D11717"/>
<path d="M63.1036 4.43333C63.4705 3.69016 64.5302 3.69016 64.897 4.43333L66.3429 7.36246C66.4884 7.6573 66.7696 7.86176 67.095 7.90932L70.3299 8.38215C71.1498 8.50199 71.4766 9.50983 70.883 10.088L68.5438 12.3664C68.3079 12.5961 68.2002 12.9272 68.2559 13.2518L68.8078 16.4693C68.9479 17.2863 68.0903 17.9093 67.3567 17.5234L64.4658 16.0031C64.1744 15.8499 63.8263 15.8499 63.5349 16.0031L60.644 17.5234C59.9103 17.9093 59.0528 17.2863 59.1929 16.4693L59.7447 13.2518C59.8004 12.9272 59.6927 12.5961 59.4569 12.3664L57.1177 10.088C56.5241 9.50984 56.8509 8.50199 57.6708 8.38215L60.9057 7.90932C61.231 7.86176 61.5122 7.6573 61.6578 7.36246L63.1036 4.43333Z" fill="#D11717"/>
<path d="M81.1036 4.43333C81.4705 3.69016 82.5302 3.69016 82.897 4.43333L84.3429 7.36246C84.4884 7.6573 84.7696 7.86176 85.095 7.90932L88.3299 8.38215C89.1498 8.50199 89.4766 9.50983 88.883 10.088L86.5438 12.3664C86.3079 12.5961 86.2002 12.9272 86.2559 13.2518L86.8078 16.4693C86.9479 17.2863 86.0903 17.9093 85.3567 17.5234L82.4658 16.0031C82.1744 15.8499 81.8263 15.8499 81.5349 16.0031L78.644 17.5234C77.9103 17.9093 77.0528 17.2863 77.1929 16.4693L77.7447 13.2518C77.8004 12.9272 77.6927 12.5961 77.4569 12.3664L75.1177 10.088C74.5241 9.50984 74.8509 8.50199 75.6708 8.38215L78.9057 7.90932C79.231 7.86176 79.5122 7.6573 79.6578 7.36246L81.1036 4.43333Z" fill="#D11717"/>
</svg>
