<svg width="36" height="36" viewBox="0 0 36 36" fill="none" xmlns="http://www.w3.org/2000/svg">
<rect width="36" height="36" rx="18" fill="#7C509A"/>
<path d="M23.6285 8.59142C20.1982 7.93632 16.6359 7.93632 13.2055 8.59142C11.6882 8.91897 9.77513 10.7532 9.44529 12.1945C8.85157 15.0114 8.85157 17.8938 9.44529 20.7107C9.8411 22.1519 11.7542 23.9862 13.2055 24.3137C13.2715 24.3137 13.3374 24.3792 13.3374 24.4448V28.5719C13.3374 28.7684 13.6013 28.8994 13.7332 28.7029L15.7123 26.6721C15.7123 26.6721 17.2955 25.0343 17.5594 24.7723C17.5594 24.7723 17.6254 24.7068 17.6914 24.7068C19.6704 24.7723 21.7154 24.5758 23.6945 24.2482C25.2118 23.9207 27.1249 22.0864 27.4547 20.6452C28.0484 17.8283 28.0484 14.9459 27.4547 12.1289C27.0589 10.7532 25.1458 8.91897 23.6285 8.59142ZM23.6945 20.9072C23.3647 21.5623 22.9689 22.0864 22.3092 22.414C22.1113 22.4795 21.9134 22.545 21.7154 22.6105C21.4516 22.545 21.2537 22.4795 21.0558 22.414C18.9448 21.5623 16.9657 20.3832 15.3825 18.6799C14.5249 17.6973 13.7992 16.5836 13.2055 15.4044C12.9416 14.8148 12.6777 14.2908 12.4798 13.7012C12.2819 13.1771 12.6118 12.653 12.9416 12.26C13.2715 11.8669 13.6673 11.6049 14.1291 11.4083C14.4589 11.2118 14.7887 11.3428 15.0526 11.6049C15.5804 12.26 16.1081 12.9151 16.5039 13.6357C16.7678 14.0942 16.7018 14.6183 16.2401 14.9459C16.1081 15.0114 16.0421 15.0769 15.9102 15.2079C15.8442 15.2734 15.7123 15.3389 15.6463 15.4699C15.5144 15.6665 15.5144 15.863 15.5804 16.0595C16.1081 17.5662 17.0976 18.7454 18.6149 19.4005C18.8788 19.5315 19.0767 19.597 19.4065 19.597C19.8683 19.5315 20.0662 19.0075 20.3961 18.7454C20.7259 18.4834 21.1217 18.4834 21.5175 18.6799C21.8474 18.8764 22.1772 19.1385 22.573 19.4005C22.9029 19.6625 23.2327 19.8591 23.5626 20.1211C23.7605 20.2521 23.8264 20.5797 23.6945 20.9072ZM20.9238 15.994C20.7919 15.994 20.8579 15.994 20.9238 15.994C20.6599 15.994 20.594 15.863 20.528 15.6665C20.528 15.5354 20.528 15.3389 20.462 15.2079C20.3961 14.9459 20.2641 14.6838 20.0003 14.4873C19.8683 14.4218 19.7364 14.3563 19.6044 14.2908C19.4065 14.2252 19.2746 14.2252 19.0767 14.2252C18.8788 14.1597 18.8128 14.0287 18.8128 13.8322C18.8128 13.7012 19.0107 13.5702 19.1427 13.5702C20.1982 13.6357 20.9898 14.2252 21.1217 15.4699C21.1217 15.5354 21.1217 15.6665 21.1217 15.732C21.1217 15.863 21.0558 15.994 20.9238 15.994ZM20.2641 13.1116C19.9343 12.9806 19.6044 12.8495 19.2086 12.784C19.0767 12.784 18.8788 12.7185 18.7469 12.7185C18.549 12.7185 18.417 12.5875 18.483 12.391C18.483 12.1944 18.6149 12.0634 18.8128 12.1289C19.4725 12.1944 20.0662 12.3255 20.6599 12.5875C21.8474 13.1771 22.5071 14.1597 22.705 15.4699C22.705 15.5354 22.705 15.601 22.705 15.6665C22.705 15.7975 22.705 15.9285 22.705 16.125C22.705 16.1905 22.705 16.256 22.705 16.3216C22.639 16.5836 22.1772 16.6491 22.1113 16.3216C22.1113 16.256 22.0453 16.125 22.0453 16.0595C22.0453 15.4699 21.9134 14.8803 21.6495 14.3563C21.2537 13.7667 20.7919 13.3736 20.2641 13.1116ZM23.8264 17.0422C23.6285 17.0422 23.4966 16.8456 23.4966 16.6491C23.4966 16.256 23.4306 15.863 23.3647 15.4699C23.1008 13.3736 21.3856 11.6704 19.3406 11.3428C19.0107 11.2773 18.6809 11.2773 18.417 11.2118C18.2191 11.2118 17.9552 11.2118 17.8893 10.9498C17.8233 10.7532 18.0212 10.5567 18.2191 10.5567C18.2851 10.5567 18.351 10.5567 18.351 10.5567C18.483 10.5567 21.0558 10.6222 18.351 10.5567C21.1217 10.6222 23.4306 12.4565 23.8924 15.2079C23.9584 15.6665 24.0243 16.125 24.0243 16.6491C24.1563 16.8456 24.0243 17.0422 23.8264 17.0422Z" fill="white"/>
</svg>
