<svg width="40" height="41" viewBox="0 0 40 41" fill="none" xmlns="http://www.w3.org/2000/svg">
<rect x="3" y="3.80957" width="34" height="34" rx="17" fill="white"/>
<path d="M34.1463 6.78353C30.3833 3.03353 25.3658 0.950195 20.0697 0.950195C9.05923 0.950195 0.139371 9.83908 0.139371 20.8113C0.139371 24.2835 1.11498 27.7557 2.78746 30.6724L0 40.9502L10.5923 38.1724C13.5192 39.7002 16.7247 40.5335 20.0697 40.5335C31.0801 40.5335 40 31.6446 40 20.6724C39.8606 15.5335 37.9094 10.5335 34.1463 6.78353ZM29.6864 27.8946C29.2683 29.0057 27.3171 30.1169 26.3415 30.2558C25.5052 30.3946 24.3902 30.3946 23.2753 30.1169C22.5784 29.8391 21.6028 29.5613 20.4878 29.0058C15.4704 26.9224 12.2648 21.9224 11.9861 21.5058C11.7073 21.228 9.89547 18.8669 9.89547 16.3669C9.89547 13.8669 11.1498 12.7557 11.5679 12.2002C11.9861 11.6446 12.5436 11.6446 12.9617 11.6446C13.2404 11.6446 13.6585 11.6446 13.9373 11.6446C14.216 11.6446 14.6341 11.5058 15.0523 12.478C15.4704 13.4502 16.446 15.9502 16.5854 16.0891C16.7247 16.3669 16.7247 16.6446 16.5854 16.9224C16.446 17.2002 16.3066 17.478 16.0279 17.7557C15.7491 18.0335 15.4704 18.4502 15.331 18.5891C15.0523 18.8669 14.7735 19.1446 15.0523 19.5613C15.331 20.1169 16.3066 21.6446 17.8397 23.0335C19.7909 24.7002 21.324 25.2558 21.8815 25.5335C22.439 25.8113 22.7178 25.6724 22.9965 25.3946C23.2753 25.1169 24.2509 24.0058 24.5296 23.4502C24.8084 22.8946 25.2265 23.0335 25.6446 23.1724C26.0627 23.3113 28.5714 24.5613 28.9895 24.8391C29.547 25.1169 29.8258 25.2558 29.9651 25.3946C30.1045 25.8113 30.1045 26.7835 29.6864 27.8946Z" fill="#48C95F"/>
</svg>
